<svg id="Capa_1" data-name="Capa 1" xmlns="http://www.w3.org/2000/svg" viewBox="0 0 1080 1080"><defs><style>.cls-1{stroke:#000;stroke-miterlimit:10;stroke-width:5px;}</style></defs><path class="cls-1" d="M919,274.57a16.2,16.2,0,0,0-1.63-6.88,13.93,13.93,0,0,0-3.17-7.23L837.3,170.78H251.38l-76.87,89.69a13.74,13.74,0,0,0-3.16,7.22,16,16,0,0,0-1.63,6.88V408.05h37.46V920H881.51v-512H919Zm-656.1-78.81h563l53.52,62.44h-670ZM856.53,895.07H232.15v-487H856.53Zm37.47-512H194.69v-99.9H894Z"/><path class="cls-1" d="M694.2,458H394.49V582.88H694.2Zm-25,99.9H419.47V483H669.22Z"/></svg>