<svg id="Capa_1" data-name="Capa 1" xmlns="http://www.w3.org/2000/svg" viewBox="0 0 1080 1080"><path d="M807.7,244.49H775.09V190.12H720.72v54.37H361.92V190.12H307.56v54.37H274.94A81.63,81.63,0,0,0,193.4,326v478.4A81.64,81.64,0,0,0,274.94,886H807.7a81.64,81.64,0,0,0,81.55-81.55V326A81.64,81.64,0,0,0,807.7,244.49Zm27.19,559.94a27.22,27.22,0,0,1-27.19,27.18H274.94a27.21,27.21,0,0,1-27.18-27.18V445.63H834.89Zm0-413.16H247.76V326a27.21,27.21,0,0,1,27.18-27.18h32.62v54.37h54.36V298.85h358.8v54.37h54.37V298.85H807.7A27.22,27.22,0,0,1,834.89,326Z"/><rect x="296.69" y="502.72" width="54.36" height="54.36"/><rect x="405.42" y="502.72" width="54.36" height="54.36"/><rect x="514.14" y="502.72" width="54.36" height="54.36"/><rect x="622.87" y="502.72" width="54.36" height="54.36"/><rect x="731.6" y="502.72" width="54.36" height="54.36"/><rect x="296.69" y="611.44" width="54.36" height="54.36"/><rect x="405.42" y="611.44" width="54.36" height="54.36"/><rect x="514.14" y="611.44" width="54.36" height="54.36"/><rect x="622.87" y="611.44" width="54.36" height="54.36"/><rect x="296.69" y="720.17" width="54.36" height="54.36"/><rect x="405.42" y="720.17" width="54.36" height="54.36"/><rect x="514.14" y="720.17" width="54.36" height="54.36"/><rect x="622.87" y="720.17" width="54.36" height="54.36"/><rect x="731.6" y="611.44" width="54.36" height="54.36"/></svg>