<svg id="Capa_1" data-name="Capa 1" xmlns="http://www.w3.org/2000/svg" viewBox="0 0 1080 1080"><defs><style>.cls-1{fill:#f7b83b;}.cls-2,.cls-4{fill:#57b23f;}.cls-3,.cls-8{fill:none;}.cls-3{stroke:#fff;opacity:0.18;}.cls-10,.cls-3,.cls-4,.cls-5,.cls-8{stroke-linecap:round;stroke-linejoin:round;}.cls-3,.cls-4,.cls-5,.cls-8{stroke-width:9px;}.cls-10,.cls-4,.cls-5,.cls-8{stroke:#000;}.cls-5{fill:#f8b98f;}.cls-6{fill:#f6bacb;}.cls-7{fill:#86c4ec;}.cls-9{fill:#ea527d;}.cls-10{stroke-width:5px;}</style></defs><ellipse class="cls-1" cx="540.97" cy="622.11" rx="203.18" ry="246.66"/><polygon class="cls-2" points="497.11 281.56 543.95 375.28 592.26 281.56 497.11 281.56"/><line class="cls-3" x1="397.78" y1="446.34" x2="740.12" y2="674.21"/><line class="cls-3" x1="347.67" y1="543.81" x2="697.25" y2="778.81"/><line class="cls-3" x1="491.8" y1="382.43" x2="734.51" y2="548.74"/><line class="cls-3" x1="587.87" y1="382.07" x2="351.76" y2="530.25"/><line class="cls-3" x1="677.2" y1="439.56" x2="340.36" y2="665.18"/><line class="cls-3" x1="341.37" y1="671.66" x2="612.05" y2="853.44"/><line class="cls-3" x1="730.49" y1="534.6" x2="375.63" y2="766.25"/><polyline class="cls-3" points="452.34 844.3 734.51 674.21 739.49 671.65"/><path class="cls-4" d="M441.74,405.69s-90.94-116.21-125-121.53c0,0,39.35-8.51,68.07,0S460.52,354.82,476.4,387"/><path class="cls-4" d="M540.76,375.11S522.64,317,477.7,267.72s-148-41.8-148-41.8c48.23,1.07,148,161.53,148,161.53"/><path class="cls-4" d="M610.52,390.55c16.21-32.9,64.18-96.38,93.51-105.07s69.52,0,69.52,0c-34.76,5.43-127.63,124.11-127.63,124.11l-1,.81"/><path class="cls-4" d="M546.71,376.15S565,317.62,610.23,268s149.06-42.1,149.06-42.1c-48.58,1.08-149.06,162.71-149.06,162.71l-.93,1.27"/><polyline class="cls-4" points="496.98 290.24 535.93 156.82 592 290.24"/><path class="cls-5" d="M740.12,674.21l44,76.79s17.27,32.39-13,35.63L705.86,768.8l-1.88-.44"/><path class="cls-5" d="M375.63,766.25l-65.34,17.83c-30.23-3.24-13-35.63-13-35.63l44-76.79"/><ellipse class="cls-6" cx="439.12" cy="675.23" rx="20.51" ry="19.78"/><ellipse class="cls-6" cx="643.04" cy="677.05" rx="20.51" ry="19.78"/><path class="cls-1" d="M545.41,383.89c-.15.05-.31.08-.46.12.32-.09,0,0-.08,0h-.28c.22,0-.21,0-.27-.06l-.34-.11c.35.13-.11-.06-.18-.11s-.34-.26-.08,0a2.73,2.73,0,0,1-.35-.33l-.66,2.51.48-.08h.08l.24,0,1-.1q1-.11,2-.15a38.67,38.67,0,0,1,4,0A1.51,1.51,0,0,0,552,384a1.54,1.54,0,0,0-1.5-1.5,44.41,44.41,0,0,0-8.15-.33,1.5,1.5,0,0,0,0,3,44.41,44.41,0,0,1,8.15.33v-3a40.58,40.58,0,0,0-8.6.43,1.46,1.46,0,0,0-1,1,1.53,1.53,0,0,0,.38,1.46,4.85,4.85,0,0,0,5,1.31,1.5,1.5,0,0,0-.8-2.9Z"/><path class="cls-1" d="M550.41,386.42l.89-1a1.51,1.51,0,0,0,.31-1.63,1.54,1.54,0,0,0-1.37-.93l-7.41-.44v3q3.28-.19,6.58-.07a1.52,1.52,0,0,0,1.5-1.5,1.54,1.54,0,0,0-1.5-1.5c-1.43-.13-2.87-.21-4.3-.23a11.47,11.47,0,0,0-2.27.06,2.14,2.14,0,0,0-1.06.53,1.79,1.79,0,0,0-.47,1.71,1.5,1.5,0,0,0,1.84,1.05,1.54,1.54,0,0,0,1.05-1.84v.72a1,1,0,0,1-.63.71c-.13.05-.13.06,0,0-.44.12-.08,0,.07,0h.74l1.71,0c1.12,0,2.23.11,3.34.21v-3q-3.3-.12-6.58.07a1.5,1.5,0,0,0,0,3l7.41.44-1.06-2.56-.89,1a1.5,1.5,0,1,0,2.12,2.12Z"/><path class="cls-1" d="M543.55,384.76a.93.93,0,0,1-.41.5c-.12.05-.12.05,0,0l.21-.05c.35-.09-.42,0,.07,0l.47,0q1.07-.07,2.13-.09a30.65,30.65,0,0,1,4.18.23v-3l-8.05-.31a1.5,1.5,0,0,0,0,3l8.05.31a1.5,1.5,0,0,0,1.5-1.5,1.54,1.54,0,0,0-1.5-1.5,31.75,31.75,0,0,0-5-.21c-1.68.06-3.91,0-4.58,1.88a1.51,1.51,0,0,0,1.05,1.84,1.52,1.52,0,0,0,1.84-1.05Z"/><path class="cls-1" d="M543.13,384.8a57.7,57.7,0,0,1,6.44.27v-3l-2.38-.11a1.5,1.5,0,0,0,0,3l2.38.11a1.51,1.51,0,0,0,1.5-1.5,1.54,1.54,0,0,0-1.5-1.5,57.7,57.7,0,0,0-6.44-.27,1.5,1.5,0,0,0,0,3Z"/><path class="cls-1" d="M545.34,383.28l-.08-.35-1.45,1.89a48.24,48.24,0,0,1,6.47.29,1.5,1.5,0,0,0,1.5-1.5,1.55,1.55,0,0,0-1.5-1.5,48.24,48.24,0,0,0-6.47-.29,1.53,1.53,0,0,0-1.45,1.9l.09.36a1.5,1.5,0,0,0,2.89-.8Z"/><polygon class="cls-7" points="481.74 844.9 481.74 633.86 442.32 633.86 442.32 669.78 442.32 826.94 481.74 844.9"/><polygon class="cls-7" points="640.16 843.16 640.16 632.12 600.75 632.12 600.75 668.04 600.75 825.2 640.16 843.16"/><path class="cls-8" d="M422.62,614.15s39.41,43.8,74.45,0"/><path class="cls-8" d="M579.87,612.69s39.42,43.8,74.45,0"/><polyline class="cls-9" points="552.04 705.51 557.9 715.28 555.29 715.28 543.57 713.98 531.84 713.98 521.42 715.28 521.87 710.03 528.75 699.89 539.01 695.09"/><path class="cls-10" d="M518.69,717.89s6.84-22.72,20-22.72,23.23,24.14,23.23,24.14,9.54,4.45,17.41.51c0,0,15.75-7.88,3.94-23.63s-70.87-11.81-82.69,0c0,0-7.87,7.88-7.87,15.75s7.87,11.82,19.69,7.88,15.75-3.94,27.56-3.94,23.62,3.94,23.62,3.94"/><polyline class="cls-7" points="600.75 823.48 600.75 855.32 640.62 843.6 640.62 832.55"/><polyline class="cls-7" points="481.74 839.5 481.74 856.54 442.32 836.01 442.32 824.25"/><path class="cls-5" d="M412.48,813.56v81.72s-.71,35.62,16.56,25.91l49.75-60.46,2.39-2.76"/><path class="cls-5" d="M612.05,853.44l49.74,60.46c17.27,9.72,16.57-25.91,16.57-25.91V803"/><ellipse class="cls-8" cx="540.43" cy="621.97" rx="203.18" ry="246.66"/><path class="cls-1" d="M547.21,382.39l-4.38-.32.4,2.95a18.31,18.31,0,0,1,3.11-.75c.27,0-.35,0,.12,0l.37-.05.82-.08,1.65-.12a1.51,1.51,0,0,0,1.47-1.31,1.49,1.49,0,0,0-1.07-1.64,32.76,32.76,0,0,0-7.05-.72l.4,3,.3-.05c-.12,0-.13,0,0,0l.53-.06.91-.07a18.48,18.48,0,0,1,2,0l.91.07.31,0,.1,0h.1l.3.05c.65.11,1.3.25,1.93.42a1.52,1.52,0,0,0,1.85-1,1.53,1.53,0,0,0-1-1.85,21.41,21.41,0,0,0-8.94-.44,1.5,1.5,0,0,0,.4,2.94,32.19,32.19,0,0,1,3.26.14,26.53,26.53,0,0,1,3,.47l.4-2.94a25.76,25.76,0,0,0-6.87,1.11,1.51,1.51,0,0,0,.4,2.95l4.38.32a1.51,1.51,0,0,0,1.5-1.5,1.54,1.54,0,0,0-1.5-1.5Z"/><path class="cls-1" d="M549.92,383.52a.21.21,0,0,1,0-.11l0,.4c0-.17-.1.2-.11.21s0-.08.06-.1.1-.14.15-.22a1.73,1.73,0,0,0,.32-.67,1.76,1.76,0,0,0-.44-1.65,2.07,2.07,0,0,0-1.46-.56c-1.11-.08-2.24-.1-3.34-.23l.4.05a4.37,4.37,0,0,1-.49-.12c.25.11.31.14.21.08s0,0,.17.14c-.16-.16.2.37,0,.05l-1.3,2.25,5.32.38v-3l-1.14,0a1.5,1.5,0,0,0-1.5,1.5,1.53,1.53,0,0,0,1.5,1.5l1.14,0a1.5,1.5,0,0,0,0-3l-5.32-.38a1.5,1.5,0,0,0-1.29.75,1.53,1.53,0,0,0,0,1.51c.53,1.09,1.78,1.26,2.85,1.33s1.92.11,2.88.2l-.4-.06c.21.05.13,0-.26-.26a.8.8,0,0,1-.46-.54l0-.4v0l0-.4c0,.16.17-.27.11-.2s0,.08-.08.11l-.17.24a1.86,1.86,0,0,0-.34,1.16,1.63,1.63,0,0,0,.44,1.06,1.56,1.56,0,0,0,1.06.44,1.52,1.52,0,0,0,1.5-1.5Z"/><path class="cls-1" d="M546.92,381.8l-3.72-.23.4,2.94.75-.13.34-.05s.44-.07.21,0,.22,0,.26,0l.35,0,.69-.06c1-.07,1.95-.09,2.92-.07a1.48,1.48,0,0,0,1.47-1.3,1.46,1.46,0,0,0-1.07-1.64l-4.82-.71-.4,2.95a32.72,32.72,0,0,1,5-.13,1.52,1.52,0,0,0,1.5-1.5,1.54,1.54,0,0,0-1.5-1.5c-1.9-.2-3.82-.31-5.73-.33a1.5,1.5,0,0,0-1.5,1.5,1.53,1.53,0,0,0,1.5,1.5c1.91,0,3.83.13,5.73.33v-3a32.72,32.72,0,0,0-5,.13,1.51,1.51,0,0,0-1.47,1.3,1.48,1.48,0,0,0,1.07,1.65l4.82.7.4-3a29.12,29.12,0,0,0-6.32.53,1.49,1.49,0,0,0-1.07,1.64,1.51,1.51,0,0,0,1.47,1.31l3.72.23a1.5,1.5,0,0,0,0-3Z"/></svg>