<svg id="Capa_1" data-name="Capa 1" xmlns="http://www.w3.org/2000/svg" viewBox="0 0 1080 1080"><path d="M947.21,446.52c-2-61.82-28.25-119.58-74.06-162.84-46.13-43.56-107-67.55-171.45-67.55a23.69,23.69,0,0,0-8.57,1.6L650,234.46a86.59,86.59,0,0,0-141.2,54.79L154.12,426.89A23.7,23.7,0,0,0,139,449V839.23a23.68,23.68,0,0,0,23.68,23.68h761a23.68,23.68,0,0,0,23.68-23.68V449C947.33,448.14,947.29,447.32,947.21,446.52ZM581.15,264.19a39.31,39.31,0,0,1,13.55-2.41A38.67,38.67,0,0,1,631.11,287a38.12,38.12,0,0,1-1.3,29.45,39,39,0,0,1-22.07,20.19c-20.23,7.41-42.63-2.81-50-22.78a38.06,38.06,0,0,1,1.3-29.46A39,39,0,0,1,581.15,264.19ZM898.24,429.11H279.31l237-91.94a86.55,86.55,0,0,0,156.44-.67A85.08,85.08,0,0,0,677,274.81l29-11.27C803.74,265.59,885.55,337.45,898.24,429.11ZM186.36,476.48H900V539c-51.1,43.23-129.13,41.35-177.86-5.68a23.68,23.68,0,0,0-32.91,0c-50.78,49-133.42,49-184.2,0a23.68,23.68,0,0,0-32.91,0c-50.79,49-133.42,49-184.2,0a23.67,23.67,0,0,0-32.91,0,130.64,130.64,0,0,1-68.62,34.7Zm0,339.07V616a178.26,178.26,0,0,0,85.09-34.5C335,629.3,425,629.3,488.54,581.46c63.59,47.84,153.53,47.84,217.12,0C762,623.82,838.93,628.66,900,596V815.55Z"/></svg>