<svg id="Capa_1" data-name="Capa 1" xmlns="http://www.w3.org/2000/svg" viewBox="0 0 1080 1080"><path d="M804.65,243.42H667v-25A75.15,75.15,0,0,0,592,143.33H491.88a75.15,75.15,0,0,0-75.07,75.07v25H279.19A62.63,62.63,0,0,0,216.63,306v87.58a25,25,0,0,0,25,25h13.68l21.62,454a75,75,0,0,0,75,71.49h380a75,75,0,0,0,75-71.49l21.62-454h13.67a25,25,0,0,0,25-25V306a62.64,62.64,0,0,0-62.56-62.56Zm-337.8-25a25.05,25.05,0,0,1,25-25H592a25.05,25.05,0,0,1,25,25v25H466.85ZM266.68,306a12.52,12.52,0,0,1,12.51-12.51H804.65A12.52,12.52,0,0,1,817.16,306v62.55H266.68ZM756.9,870.17a25,25,0,0,1-25,23.83h-380a25,25,0,0,1-25-23.83l-21.5-451.59h473Z"/><path d="M541.92,844a25,25,0,0,0,25-25V493.64a25,25,0,0,0-50,0V818.93A25,25,0,0,0,541.92,844Z"/><path d="M667,844a25,25,0,0,0,25-25V493.64a25,25,0,0,0-50,0V818.93A25,25,0,0,0,667,844Z"/><path d="M416.81,844a25,25,0,0,0,25-25V493.64a25,25,0,0,0-50,0V818.93A25,25,0,0,0,416.81,844Z"/></svg>