<svg id="Capa_1" data-name="Capa 1" xmlns="http://www.w3.org/2000/svg" viewBox="0 0 1080 1080"><defs><style>.cls-1,.cls-2{stroke:#000;stroke-miterlimit:10;}.cls-1{stroke-width:2px;}.cls-2{stroke-width:3px;}</style></defs><path class="cls-1" d="M915.3,297.89H165.7V735H915.3Zm-31.23,408H196.93V327H884.07Z"/><path class="cls-2" d="M977.77,764.15V283.32c0-24.14-21-43.71-46.85-43.71H150.08c-25.87,0-46.85,19.57-46.85,43.71V764.15H72v43.71c0,40.21,35,72.8,78.08,72.85H930.92c43.1-.05,78-32.64,78.08-72.85V764.15ZM134.47,283.32c0-8.05,7-14.57,15.61-14.57H930.92c8.62,0,15.61,6.52,15.61,14.57V764.15H603v14.57c0,8-7,14.57-15.62,14.57h-93.7c-8.62,0-15.62-6.53-15.62-14.57V764.15H134.47V283.32Zm843.3,524.54c0,24.14-21,43.71-46.85,43.71H150.08c-25.87,0-46.85-19.57-46.85-43.71V793.29H449.47c.19.51.48,1,.7,1.46.33.77.69,1.45,1.07,2.25a43.43,43.43,0,0,0,2.79,4.8c.47.68.91,1.38,1.42,2.05a44.18,44.18,0,0,0,4.36,4.93c.33.3.58.65.9,1a49.23,49.23,0,0,0,6.25,4.85c.63.39,1.3.73,2,1.11a47.83,47.83,0,0,0,5.3,2.68c.86.36,1.72.68,2.59,1a49.32,49.32,0,0,0,5.64,1.65c.86.19,1.68.42,2.56.57a49.21,49.21,0,0,0,8.65.83h93.7a48.55,48.55,0,0,0,8.6-.82c.88-.14,1.71-.37,2.57-.58a49.66,49.66,0,0,0,5.63-1.63c.88-.32,1.74-.64,2.6-1a46.85,46.85,0,0,0,5.29-2.68c.66-.38,1.33-.71,2-1.1a48.6,48.6,0,0,0,6.25-4.86c.33-.3.58-.65.9-1a45,45,0,0,0,4.36-4.92c.52-.67,1-1.37,1.42-2.06A43.21,43.21,0,0,0,629.7,797c.38-.76.75-1.46,1.1-2.27.2-.5.5-1,.68-1.46H977.77Z"/></svg>