<svg id="Capa_1" data-name="Capa 1" xmlns="http://www.w3.org/2000/svg" viewBox="0 0 1080 1080"><path d="M538.4,187.56C344.07,187.56,186,345.66,186,540S344.07,892.44,538.4,892.44,890.85,734.34,890.85,540,732.74,187.56,538.4,187.56Zm0,666.78A314.52,314.52,0,0,1,224.06,540c0-173.33,141-314.34,314.34-314.34A314.44,314.44,0,0,1,852.75,540C852.75,713.33,711.73,854.34,538.4,854.34Z"/><circle cx="423.3" cy="461.41" r="38.1"/><circle cx="659.06" cy="461.41" r="38.1"/><path d="M537.73,735.27c73.71,0,144.36-37.7,184.81-100.29l-32-20.68c-37.14,57.48-105.08,89.55-173.11,81.7-53-6.11-102-36.66-131.15-81.7l-32,20.68c35.22,54.51,94.58,91.47,158.78,98.87A215.35,215.35,0,0,0,537.73,735.27Z"/></svg>