<svg id="Capa_1" data-name="Capa 1" xmlns="http://www.w3.org/2000/svg" viewBox="0 0 1080 1080"><defs><style>.cls-1{fill:#030104;}</style></defs><path class="cls-1" d="M944.44,203.08H637V303.2h101.7v68.15H637V438H737.69v67.11H637v67.11H737.69v67.1H637v67.11H737.69v67.11H637V874.15H944.44c15.47,0,28.12-13.12,28.12-29.19V232.27C972.56,216.2,959.91,203.08,944.44,203.08Zm-39,570.41H771.24V706.38H905.46Zm0-134.22H771.24v-67.1H905.46Zm0-134.21H771.24V438H905.46Zm0-134.21H771.24V303.74H905.46Z"/><path class="cls-1" d="M100.17,199.35V877.91l503.3,96.9V102.42ZM418.53,709.07,360,598.37q-3.32-6.18-6.87-22.75h-.91q-1.67,7.8-7.85,23.73L285.59,709.07H194.35L302.66,539.15,203.58,369.2h93.15l48.58,101.9a178.49,178.49,0,0,1,10.2,28.66h.94q2.87-10,10.67-29.63l54-101h85.3L404.53,537.67,509.29,709l-90.76,0Z"/></svg>