<svg id="Capa_1" data-name="Capa 1" xmlns="http://www.w3.org/2000/svg" viewBox="0 0 1080 1080"><path d="M578,720.9a27.44,27.44,0,0,1,19.41-46.84H700.77A131.47,131.47,0,0,0,795,635.12c52-52,52-136.52,0-188.48a131.47,131.47,0,0,0-94.12-38.94H597.35a27.44,27.44,0,0,1,0-54.87H700.77a185.8,185.8,0,0,1,133.05,55c73.36,73.36,73.36,192.73,0,266.09a185.85,185.85,0,0,1-133.2,55l-103.28,0A27.34,27.34,0,0,1,578,720.9Z"/><path d="M246.18,673.92c-73.36-73.36-73.36-192.73,0-266.09a185.78,185.78,0,0,1,133.2-55l103.29,0a27.44,27.44,0,0,1,0,54.87H379.25A131.34,131.34,0,0,0,285,446.64c-52,52-52,136.52,0,188.48a131.49,131.49,0,0,0,94.12,38.94H482.64a27.44,27.44,0,1,1,0,54.87H379.23A185.85,185.85,0,0,1,246.18,673.92Z"/><path d="M365.38,560.28a27.44,27.44,0,0,1,19.4-46.84H695.22a27.44,27.44,0,1,1,0,54.87H384.78A27.37,27.37,0,0,1,365.38,560.28Z"/></svg>