<svg id="Capa_1" data-name="Capa 1" xmlns="http://www.w3.org/2000/svg" viewBox="0 0 1080 1080"><path d="M862.15,445a29.34,29.34,0,0,0-41.48.11L468.08,799.57a117.32,117.32,0,0,1-165.86-166l363-364.93A73.32,73.32,0,0,1,768.87,372.42L468.14,673.15l-.06.06a29.32,29.32,0,0,1-41.4-41.52L571.84,486.5A29.33,29.33,0,0,0,530.35,445L385.19,590.21A88,88,0,0,0,509.63,714.64l.11-.13L810.35,413.9A132,132,0,0,0,623.71,227.23l-363,364.94C192,660.82,192,772.25,260.74,841s180.17,68.72,248.88,0L862.26,486.44A29.32,29.32,0,0,0,862.15,445Z"/></svg>