<svg id="Capa_1" data-name="Capa 1" xmlns="http://www.w3.org/2000/svg" viewBox="0 0 1080 1080"><defs><style>.cls-1{fill:#f7b83b;}.cls-2{fill:#ea527d;}.cls-3,.cls-5{fill:#57b23f;}.cls-4,.cls-9{fill:none;}.cls-4{stroke:#fff;opacity:0.18;}.cls-4,.cls-5,.cls-6,.cls-9{stroke-linecap:round;stroke-linejoin:round;stroke-width:9px;}.cls-5,.cls-6,.cls-9{stroke:#000;}.cls-6{fill:#f8b98f;}.cls-7{fill:#f6bacb;}.cls-8{fill:#fff;}</style></defs><ellipse class="cls-1" cx="541.22" cy="624.18" rx="204.45" ry="248.19"/><path class="cls-2" d="M519.17,730.18c1.31-1.31,10-13.25,10-13.25l24.19,1,16.91,10.94-15.73,7.87-27,.8-8.4-6"/><polygon class="cls-3" points="496.59 288.43 541.59 372.98 587.99 288.43 496.59 288.43"/><line class="cls-4" x1="397.14" y1="447.32" x2="741.61" y2="676.6"/><line class="cls-4" x1="346.71" y1="545.39" x2="698.47" y2="781.85"/><line class="cls-4" x1="491.74" y1="383.01" x2="735.96" y2="550.35"/><line class="cls-4" x1="588.41" y1="382.65" x2="350.84" y2="531.75"/><line class="cls-4" x1="678.3" y1="440.49" x2="339.36" y2="667.52"/><line class="cls-4" x1="340.38" y1="674.04" x2="612.74" y2="856.95"/><line class="cls-4" x1="731.91" y1="536.12" x2="374.85" y2="769.22"/><polyline class="cls-4" points="452.04 847.75 735.96 676.6 740.98 674.02"/><path class="cls-5" d="M441.37,406.41s-91.5-116.93-125.75-122.28c0,0,39.6-8.56,68.5,0s76.15,71.1,92.12,103.51"/><path class="cls-5" d="M541,375.65s-18.24-58.46-63.45-108.07-148.9-42.06-148.9-42.06c48.53,1.08,148.9,162.54,148.9,162.54"/><path class="cls-5" d="M611.2,391.18c16.32-33.11,64.58-97,94.09-105.72s70,0,70,0c-35,5.46-128.43,124.88-128.43,124.88l-1,.82"/><path class="cls-5" d="M547,376.69s18.36-58.89,63.91-108.86,150-42.37,150-42.37c-48.88,1.09-150,163.73-150,163.73l-.93,1.28"/><polyline class="cls-5" points="496.95 290.24 536.14 156 592.56 290.24"/><path class="cls-6" d="M411.93,816.82V899s-.71,35.85,16.67,26.08l50-60.84,2.41-2.77"/><path class="cls-6" d="M741.61,676.6l44.31,77.27s17.38,32.59-13,35.85l-65.75-17.94-1.9-.44"/><path class="cls-6" d="M612.74,857l50,60.83c17.38,9.78,16.67-26.07,16.67-26.07v-85.5"/><path class="cls-6" d="M374.85,769.22,309.1,787.15c-30.41-3.26-13-35.85-13-35.85L340.38,674"/><ellipse class="cls-7" cx="441.36" cy="677.63" rx="20.64" ry="19.9"/><ellipse class="cls-7" cx="641.31" cy="679.46" rx="20.64" ry="19.9"/><circle cx="478.03" cy="641.1" r="35.5"/><circle class="cls-8" cx="491.76" cy="632.97" r="14.24"/><circle cx="605.8" cy="641.1" r="35.5"/><circle class="cls-8" cx="592.08" cy="632.97" r="14.24"/><path class="cls-9" d="M513.53,731s8.48-16.24,26.55-16.24,30.22,17.29,30.22,17.29"/><path class="cls-1" d="M545.69,384.49l-.47.12c.33-.09,0,0-.08,0h-.28c.22,0-.22-.05-.27-.06l-.34-.11c.34.12-.11-.07-.19-.11s-.34-.27-.08,0a3.76,3.76,0,0,1-.35-.34l-.66,2.51.48-.07c.19,0,.21,0,.08,0l.25,0,1-.1c.68-.07,1.35-.12,2-.15a39.09,39.09,0,0,1,4.05,0,1.51,1.51,0,0,0,1.5-1.5,1.54,1.54,0,0,0-1.5-1.5,43.24,43.24,0,0,0-8.2-.33,1.5,1.5,0,0,0,0,3,43.24,43.24,0,0,1,8.2.33v-3a40.43,40.43,0,0,0-8.65.43,1.49,1.49,0,0,0-1,1.05,1.54,1.54,0,0,0,.39,1.46,4.84,4.84,0,0,0,5,1.31,1.5,1.5,0,0,0-.8-2.89Z"/><path class="cls-1" d="M550.71,387l.89-1a1.49,1.49,0,0,0,.31-1.63,1.54,1.54,0,0,0-1.37-.93l-7.45-.44v3q3.3-.2,6.62-.07a1.52,1.52,0,0,0,1.5-1.5,1.54,1.54,0,0,0-1.5-1.5c-1.44-.13-2.88-.21-4.33-.23a11.57,11.57,0,0,0-2.28.05,2.24,2.24,0,0,0-1.06.54,1.79,1.79,0,0,0-.47,1.71,1.5,1.5,0,0,0,1.84,1,1.54,1.54,0,0,0,1.05-1.85v.73a1,1,0,0,1-.63.71c-.12.05-.13.06,0,0-.44.12-.08,0,.08,0h.74c.58,0,1.15,0,1.72,0q1.68.06,3.36.21v-3q-3.32-.12-6.62.07a1.52,1.52,0,0,0-1.5,1.5,1.54,1.54,0,0,0,1.5,1.5l7.45.44-1.06-2.56-.89,1a1.5,1.5,0,0,0,2.12,2.12Z"/><path class="cls-1" d="M543.81,385.35a.93.93,0,0,1-.41.5c-.12,0-.12,0,0,0l.21-.05c.35-.09-.42,0,.07,0l.48,0c.71-.06,1.43-.09,2.14-.09a31.18,31.18,0,0,1,4.21.23v-3l-8.1-.32a1.5,1.5,0,0,0,0,3l8.1.32a1.52,1.52,0,0,0,1.5-1.5,1.54,1.54,0,0,0-1.5-1.5,32.14,32.14,0,0,0-5-.22c-1.69.06-3.93,0-4.6,1.89A1.5,1.5,0,0,0,542,386.4a1.53,1.53,0,0,0,1.84-1Z"/><path class="cls-1" d="M543.4,385.38a61.06,61.06,0,0,1,6.48.27v-3l-2.41-.1a1.52,1.52,0,0,0-1.5,1.5,1.54,1.54,0,0,0,1.5,1.5l2.41.1a1.51,1.51,0,0,0,1.5-1.5,1.55,1.55,0,0,0-1.5-1.5,61.06,61.06,0,0,0-6.48-.27,1.5,1.5,0,0,0,0,3Z"/><path class="cls-1" d="M545.61,383.86l-.09-.35-1.44,1.9a47.22,47.22,0,0,1,6.51.29,1.5,1.5,0,0,0,1.5-1.5,1.54,1.54,0,0,0-1.5-1.5,47.22,47.22,0,0,0-6.51-.29,1.52,1.52,0,0,0-1.45,1.9l.09.35a1.52,1.52,0,0,0,1.84,1,1.54,1.54,0,0,0,1.05-1.85Z"/><ellipse class="cls-9" cx="540.68" cy="624.04" rx="204.45" ry="248.19"/><path class="cls-9" d="M491.74,699.37h96.67s-2.45,40.26-45.08,40.26S491.74,699.37,491.74,699.37Z"/><polygon points="496.89 701.34 588.41 701.34 572.29 730.6 538.83 713.14 508.68 730.18 496.89 701.34"/></svg>