<svg id="Capa_1" data-name="Capa 1" xmlns="http://www.w3.org/2000/svg" viewBox="0 0 1080 1080"><path d="M544.39,155.35c-210.33,0-380.83,170.5-380.83,380.82S334.06,917,544.39,917,925.21,746.5,925.21,536.17C925,325.94,754.62,155.57,544.39,155.35Zm0,707.25C364.11,862.6,218,716.45,218,536.17S364.11,209.75,544.39,209.75,870.81,355.89,870.81,536.17C870.62,716.37,724.59,862.4,544.39,862.6Z"/><path d="M544.39,291.36a27.2,27.2,0,0,0-27.21,27.2V509H326.77a27.21,27.21,0,0,0,0,54.41H544.39a27.2,27.2,0,0,0,27.2-27.21V318.56A27.2,27.2,0,0,0,544.39,291.36Z"/></svg>