<svg id="Capa_1" data-name="Capa 1" xmlns="http://www.w3.org/2000/svg" viewBox="0 0 1080 1080"><defs><style>.cls-1{fill:#f7b83b;}.cls-2{fill:#083c44;}.cls-3{fill:#375a64;}.cls-4{fill:#1a2e35;}.cls-5{fill:#57b23f;}.cls-6{fill:#f5f5f5;}</style></defs><circle class="cls-1" cx="538.19" cy="489.76" r="380.61"/><rect class="cls-2" x="408.23" y="288.78" width="290.46" height="387.83"/><rect class="cls-3" x="365.81" y="352.52" width="317.53" height="78.78"/><rect class="cls-2" x="379.91" y="368.75" width="62.52" height="9.62"/><rect class="cls-2" x="379.91" y="385.3" width="62.52" height="9.62"/><rect class="cls-2" x="379.91" y="402.42" width="62.52" height="9.62"/><path class="cls-4" d="M467.16,374.56a3.59,3.59,0,1,1-3.59-3.58A3.59,3.59,0,0,1,467.16,374.56Z"/><path class="cls-4" d="M483,374.56A3.59,3.59,0,1,1,479.4,371,3.58,3.58,0,0,1,483,374.56Z"/><path class="cls-4" d="M498.81,374.56a3.59,3.59,0,1,1-3.58-3.58A3.58,3.58,0,0,1,498.81,374.56Z"/><path class="cls-4" d="M514.64,374.56a3.59,3.59,0,1,1-3.59-3.58A3.59,3.59,0,0,1,514.64,374.56Z"/><path class="cls-4" d="M637.28,374.56A3.59,3.59,0,1,1,633.7,371,3.58,3.58,0,0,1,637.28,374.56Z"/><path class="cls-4" d="M653.42,374.56a3.59,3.59,0,1,1-3.58-3.58A3.58,3.58,0,0,1,653.42,374.56Z"/><path class="cls-4" d="M530.47,374.56a3.59,3.59,0,1,1-3.59-3.58A3.59,3.59,0,0,1,530.47,374.56Z"/><path class="cls-4" d="M608.19,374.56a3.59,3.59,0,1,1-3.58-3.58A3.58,3.58,0,0,1,608.19,374.56Z"/><path class="cls-5" d="M546.29,374.56a3.59,3.59,0,1,1-3.58-3.58A3.58,3.58,0,0,1,546.29,374.56Z"/><path class="cls-6" d="M562.12,374.56a3.59,3.59,0,1,1-3.59-3.58A3.59,3.59,0,0,1,562.12,374.56Z"/><path class="cls-5" d="M594.23,374.56a3.59,3.59,0,1,1-3.59-3.58A3.59,3.59,0,0,1,594.23,374.56Z"/><path class="cls-5" d="M666.55,374.56A3.59,3.59,0,1,1,663,371,3.58,3.58,0,0,1,666.55,374.56Z"/><path class="cls-1" d="M578,374.56a3.59,3.59,0,1,1-3.59-3.58A3.59,3.59,0,0,1,578,374.56Z"/><path class="cls-1" d="M623.26,374.56a3.59,3.59,0,1,1-3.58-3.58A3.58,3.58,0,0,1,623.26,374.56Z"/><path class="cls-4" d="M659.38,391.85a3.59,3.59,0,1,1,3.59,3.59A3.59,3.59,0,0,1,659.38,391.85Z"/><path class="cls-4" d="M643.55,391.85a3.59,3.59,0,1,1,3.59,3.59A3.59,3.59,0,0,1,643.55,391.85Z"/><path class="cls-4" d="M627.73,391.85a3.59,3.59,0,1,1,3.58,3.59A3.58,3.58,0,0,1,627.73,391.85Z"/><path class="cls-4" d="M611.9,391.85a3.59,3.59,0,1,1,3.59,3.59A3.59,3.59,0,0,1,611.9,391.85Z"/><path class="cls-4" d="M489.26,391.85a3.59,3.59,0,1,1,3.58,3.59A3.58,3.58,0,0,1,489.26,391.85Z"/><path class="cls-4" d="M473.12,391.85a3.59,3.59,0,1,1,3.58,3.59A3.58,3.58,0,0,1,473.12,391.85Z"/><path class="cls-4" d="M596.07,391.85a3.59,3.59,0,1,1,3.59,3.59A3.59,3.59,0,0,1,596.07,391.85Z"/><path class="cls-4" d="M518.35,391.85a3.59,3.59,0,1,1,3.58,3.59A3.58,3.58,0,0,1,518.35,391.85Z"/><path class="cls-6" d="M580.25,391.85a3.59,3.59,0,1,1,3.58,3.59A3.58,3.58,0,0,1,580.25,391.85Z"/><path class="cls-6" d="M564.42,391.85a3.59,3.59,0,1,1,3.59,3.59A3.59,3.59,0,0,1,564.42,391.85Z"/><path class="cls-5" d="M532.31,391.85a3.59,3.59,0,1,1,3.59,3.59A3.59,3.59,0,0,1,532.31,391.85Z"/><path class="cls-5" d="M460,391.85a3.59,3.59,0,1,1,3.59,3.59A3.59,3.59,0,0,1,460,391.85Z"/><path class="cls-1" d="M548.59,391.85a3.59,3.59,0,1,1,3.59,3.59A3.59,3.59,0,0,1,548.59,391.85Z"/><path class="cls-1" d="M503.28,391.85a3.59,3.59,0,1,1,3.58,3.59A3.58,3.58,0,0,1,503.28,391.85Z"/><path class="cls-4" d="M467.16,407.23a3.59,3.59,0,1,1-3.59-3.59A3.58,3.58,0,0,1,467.16,407.23Z"/><circle class="cls-4" cx="479.4" cy="407.23" r="3.59"/><circle class="cls-4" cx="495.23" cy="407.23" r="3.59"/><path class="cls-4" d="M514.64,407.23a3.59,3.59,0,1,1-3.59-3.59A3.58,3.58,0,0,1,514.64,407.23Z"/><circle class="cls-4" cx="633.7" cy="407.23" r="3.59"/><circle class="cls-4" cx="649.84" cy="407.23" r="3.59"/><path class="cls-4" d="M530.47,407.23a3.59,3.59,0,1,1-3.59-3.59A3.58,3.58,0,0,1,530.47,407.23Z"/><path class="cls-4" d="M608.19,407.23a3.59,3.59,0,1,1-3.58-3.59A3.58,3.58,0,0,1,608.19,407.23Z"/><circle class="cls-6" cx="542.71" cy="407.23" r="3.59"/><path class="cls-5" d="M562.12,407.23a3.59,3.59,0,1,1-3.59-3.59A3.58,3.58,0,0,1,562.12,407.23Z"/><path class="cls-5" d="M594.23,407.23a3.59,3.59,0,1,1-3.59-3.59A3.58,3.58,0,0,1,594.23,407.23Z"/><path class="cls-5" d="M666.55,407.23a3.59,3.59,0,1,1-3.58-3.59A3.58,3.58,0,0,1,666.55,407.23Z"/><path class="cls-1" d="M578,407.23a3.59,3.59,0,1,1-3.59-3.59A3.58,3.58,0,0,1,578,407.23Z"/><circle class="cls-1" cx="619.68" cy="407.23" r="3.59"/><rect class="cls-3" x="365.81" y="449.74" width="317.53" height="78.78"/><path class="cls-4" d="M466.37,471a3.59,3.59,0,1,1-3.59-3.59A3.58,3.58,0,0,1,466.37,471Z"/><path class="cls-4" d="M482.2,471a3.59,3.59,0,1,1-3.59-3.59A3.58,3.58,0,0,1,482.2,471Z"/><path class="cls-4" d="M498,471a3.59,3.59,0,1,1-3.59-3.59A3.58,3.58,0,0,1,498,471Z"/><path class="cls-4" d="M513.85,471a3.59,3.59,0,1,1-3.58-3.59A3.58,3.58,0,0,1,513.85,471Z"/><path class="cls-4" d="M636.5,471a3.59,3.59,0,1,1-3.59-3.59A3.58,3.58,0,0,1,636.5,471Z"/><path class="cls-4" d="M652.64,471a3.59,3.59,0,1,1-3.59-3.59A3.58,3.58,0,0,1,652.64,471Z"/><path class="cls-4" d="M529.68,471a3.59,3.59,0,1,1-3.59-3.59A3.58,3.58,0,0,1,529.68,471Z"/><path class="cls-4" d="M607.41,471a3.59,3.59,0,1,1-3.59-3.59A3.58,3.58,0,0,1,607.41,471Z"/><path class="cls-5" d="M545.51,471a3.59,3.59,0,1,1-3.59-3.59A3.58,3.58,0,0,1,545.51,471Z"/><path class="cls-6" d="M561.33,471a3.59,3.59,0,1,1-3.58-3.59A3.58,3.58,0,0,1,561.33,471Z"/><path class="cls-5" d="M593.44,471a3.59,3.59,0,1,1-3.58-3.59A3.58,3.58,0,0,1,593.44,471Z"/><path class="cls-5" d="M665.77,471a3.59,3.59,0,1,1-3.59-3.59A3.58,3.58,0,0,1,665.77,471Z"/><path class="cls-1" d="M577.16,471a3.59,3.59,0,1,1-3.59-3.59A3.58,3.58,0,0,1,577.16,471Z"/><path class="cls-1" d="M622.48,471a3.59,3.59,0,1,1-3.59-3.59A3.58,3.58,0,0,1,622.48,471Z"/><path class="cls-4" d="M658.6,488.28a3.59,3.59,0,1,1,3.58,3.59A3.58,3.58,0,0,1,658.6,488.28Z"/><circle class="cls-4" cx="646.35" cy="488.28" r="3.59"/><path class="cls-4" d="M626.94,488.28a3.59,3.59,0,1,1,3.59,3.59A3.58,3.58,0,0,1,626.94,488.28Z"/><path class="cls-4" d="M611.11,488.28a3.59,3.59,0,1,1,3.59,3.59A3.58,3.58,0,0,1,611.11,488.28Z"/><path class="cls-4" d="M488.47,488.28a3.59,3.59,0,1,1,3.59,3.59A3.58,3.58,0,0,1,488.47,488.28Z"/><path class="cls-4" d="M472.33,488.28a3.59,3.59,0,1,1,3.59,3.59A3.58,3.58,0,0,1,472.33,488.28Z"/><circle class="cls-4" cx="598.87" cy="488.28" r="3.59"/><path class="cls-4" d="M517.56,488.28a3.59,3.59,0,1,1,3.59,3.59A3.58,3.58,0,0,1,517.56,488.28Z"/><path class="cls-5" d="M579.46,488.28a3.59,3.59,0,1,1,3.59,3.59A3.58,3.58,0,0,1,579.46,488.28Z"/><path class="cls-6" d="M563.63,488.28a3.59,3.59,0,1,1,3.59,3.59A3.58,3.58,0,0,1,563.63,488.28Z"/><circle class="cls-5" cx="535.11" cy="488.28" r="3.59"/><path class="cls-5" d="M459.2,488.28a3.59,3.59,0,1,1,3.58,3.59A3.58,3.58,0,0,1,459.2,488.28Z"/><path class="cls-1" d="M547.81,488.28a3.59,3.59,0,1,1,3.58,3.59A3.58,3.58,0,0,1,547.81,488.28Z"/><path class="cls-1" d="M502.49,488.28a3.59,3.59,0,1,1,3.59,3.59A3.58,3.58,0,0,1,502.49,488.28Z"/><path class="cls-4" d="M466.37,503.66a3.59,3.59,0,1,1-3.59-3.59A3.59,3.59,0,0,1,466.37,503.66Z"/><path class="cls-4" d="M482.2,503.66a3.59,3.59,0,1,1-3.59-3.59A3.59,3.59,0,0,1,482.2,503.66Z"/><path class="cls-4" d="M498,503.66a3.59,3.59,0,1,1-3.59-3.59A3.59,3.59,0,0,1,498,503.66Z"/><path class="cls-4" d="M513.85,503.66a3.59,3.59,0,1,1-3.58-3.59A3.58,3.58,0,0,1,513.85,503.66Z"/><path class="cls-4" d="M636.5,503.66a3.59,3.59,0,1,1-3.59-3.59A3.59,3.59,0,0,1,636.5,503.66Z"/><path class="cls-4" d="M652.64,503.66a3.59,3.59,0,1,1-3.59-3.59A3.59,3.59,0,0,1,652.64,503.66Z"/><path class="cls-4" d="M529.68,503.66a3.59,3.59,0,1,1-3.59-3.59A3.59,3.59,0,0,1,529.68,503.66Z"/><path class="cls-4" d="M607.41,503.66a3.59,3.59,0,1,1-3.59-3.59A3.59,3.59,0,0,1,607.41,503.66Z"/><path class="cls-5" d="M545.51,503.66a3.59,3.59,0,1,1-3.59-3.59A3.59,3.59,0,0,1,545.51,503.66Z"/><path class="cls-6" d="M561.33,503.66a3.59,3.59,0,1,1-3.58-3.59A3.58,3.58,0,0,1,561.33,503.66Z"/><path class="cls-6" d="M593.44,503.66a3.59,3.59,0,1,1-3.58-3.59A3.58,3.58,0,0,1,593.44,503.66Z"/><path class="cls-5" d="M665.77,503.66a3.59,3.59,0,1,1-3.59-3.59A3.59,3.59,0,0,1,665.77,503.66Z"/><path class="cls-1" d="M577.16,503.66a3.59,3.59,0,1,1-3.59-3.59A3.59,3.59,0,0,1,577.16,503.66Z"/><path class="cls-1" d="M622.48,503.66a3.59,3.59,0,1,1-3.59-3.59A3.59,3.59,0,0,1,622.48,503.66Z"/><rect class="cls-2" x="379.91" y="465.97" width="62.52" height="9.62"/><rect class="cls-2" x="379.91" y="482.52" width="62.52" height="9.62"/><rect class="cls-2" x="379.91" y="499.63" width="62.52" height="9.62"/><rect class="cls-3" x="365.81" y="546.96" width="317.53" height="78.78"/><rect class="cls-2" x="379.91" y="563.19" width="62.52" height="9.62"/><rect class="cls-2" x="379.91" y="579.74" width="62.52" height="9.62"/><rect class="cls-2" x="379.91" y="596.85" width="62.52" height="9.62"/><path class="cls-4" d="M465.22,568.21a3.59,3.59,0,1,1-3.59-3.58A3.59,3.59,0,0,1,465.22,568.21Z"/><path class="cls-4" d="M481.05,568.21a3.59,3.59,0,1,1-3.59-3.58A3.59,3.59,0,0,1,481.05,568.21Z"/><path class="cls-4" d="M496.88,568.21a3.59,3.59,0,1,1-3.59-3.58A3.59,3.59,0,0,1,496.88,568.21Z"/><path class="cls-4" d="M512.7,568.21a3.59,3.59,0,1,1-3.58-3.58A3.58,3.58,0,0,1,512.7,568.21Z"/><path class="cls-4" d="M635.35,568.21a3.59,3.59,0,1,1-3.59-3.58A3.59,3.59,0,0,1,635.35,568.21Z"/><path class="cls-4" d="M651.49,568.21a3.59,3.59,0,1,1-3.59-3.58A3.59,3.59,0,0,1,651.49,568.21Z"/><path class="cls-4" d="M528.53,568.21a3.59,3.59,0,1,1-3.59-3.58A3.59,3.59,0,0,1,528.53,568.21Z"/><path class="cls-4" d="M606.25,568.21a3.59,3.59,0,1,1-3.58-3.58A3.58,3.58,0,0,1,606.25,568.21Z"/><path class="cls-5" d="M544.36,568.21a3.59,3.59,0,1,1-3.59-3.58A3.59,3.59,0,0,1,544.36,568.21Z"/><path class="cls-6" d="M560.18,568.21a3.59,3.59,0,1,1-3.58-3.58A3.58,3.58,0,0,1,560.18,568.21Z"/><path class="cls-5" d="M592.29,568.21a3.59,3.59,0,1,1-3.58-3.58A3.58,3.58,0,0,1,592.29,568.21Z"/><path class="cls-5" d="M664.62,568.21a3.59,3.59,0,1,1-3.59-3.58A3.59,3.59,0,0,1,664.62,568.21Z"/><path class="cls-1" d="M576,568.21a3.59,3.59,0,1,1-3.59-3.58A3.59,3.59,0,0,1,576,568.21Z"/><path class="cls-1" d="M621.33,568.21a3.59,3.59,0,1,1-3.59-3.58A3.59,3.59,0,0,1,621.33,568.21Z"/><path class="cls-4" d="M657.45,585.5a3.59,3.59,0,1,1,3.58,3.59A3.58,3.58,0,0,1,657.45,585.5Z"/><path class="cls-4" d="M641.62,585.5a3.59,3.59,0,1,1,3.58,3.59A3.58,3.58,0,0,1,641.62,585.5Z"/><path class="cls-4" d="M625.79,585.5a3.59,3.59,0,1,1,3.59,3.59A3.58,3.58,0,0,1,625.79,585.5Z"/><path class="cls-4" d="M610,585.5a3.59,3.59,0,1,1,3.59,3.59A3.58,3.58,0,0,1,610,585.5Z"/><path class="cls-4" d="M487.32,585.5a3.59,3.59,0,1,1,3.59,3.59A3.58,3.58,0,0,1,487.32,585.5Z"/><path class="cls-4" d="M471.18,585.5a3.59,3.59,0,1,1,3.59,3.59A3.58,3.58,0,0,1,471.18,585.5Z"/><path class="cls-4" d="M594.14,585.5a3.59,3.59,0,1,1,3.58,3.59A3.58,3.58,0,0,1,594.14,585.5Z"/><path class="cls-4" d="M516.41,585.5a3.59,3.59,0,1,1,3.59,3.59A3.58,3.58,0,0,1,516.41,585.5Z"/><path class="cls-5" d="M578.31,585.5a3.59,3.59,0,1,1,3.59,3.59A3.58,3.58,0,0,1,578.31,585.5Z"/><path class="cls-6" d="M562.48,585.5a3.59,3.59,0,1,1,3.59,3.59A3.58,3.58,0,0,1,562.48,585.5Z"/><path class="cls-5" d="M530.37,585.5a3.59,3.59,0,1,1,3.59,3.59A3.58,3.58,0,0,1,530.37,585.5Z"/><path class="cls-5" d="M458.05,585.5a3.59,3.59,0,1,1,3.58,3.59A3.58,3.58,0,0,1,458.05,585.5Z"/><path class="cls-1" d="M546.66,585.5a3.59,3.59,0,1,1,3.58,3.59A3.58,3.58,0,0,1,546.66,585.5Z"/><path class="cls-1" d="M501.34,585.5a3.59,3.59,0,1,1,3.59,3.59A3.58,3.58,0,0,1,501.34,585.5Z"/><path class="cls-4" d="M465.22,600.88a3.59,3.59,0,1,1-3.59-3.59A3.58,3.58,0,0,1,465.22,600.88Z"/><path class="cls-4" d="M481.05,600.88a3.59,3.59,0,1,1-3.59-3.59A3.58,3.58,0,0,1,481.05,600.88Z"/><path class="cls-4" d="M496.88,600.88a3.59,3.59,0,1,1-3.59-3.59A3.58,3.58,0,0,1,496.88,600.88Z"/><path class="cls-4" d="M512.7,600.88a3.59,3.59,0,1,1-3.58-3.59A3.58,3.58,0,0,1,512.7,600.88Z"/><path class="cls-4" d="M635.35,600.88a3.59,3.59,0,1,1-3.59-3.59A3.58,3.58,0,0,1,635.35,600.88Z"/><path class="cls-4" d="M651.49,600.88a3.59,3.59,0,1,1-3.59-3.59A3.58,3.58,0,0,1,651.49,600.88Z"/><path class="cls-4" d="M528.53,600.88a3.59,3.59,0,1,1-3.59-3.59A3.58,3.58,0,0,1,528.53,600.88Z"/><path class="cls-4" d="M606.25,600.88a3.59,3.59,0,1,1-3.58-3.59A3.58,3.58,0,0,1,606.25,600.88Z"/><path class="cls-5" d="M544.36,600.88a3.59,3.59,0,1,1-3.59-3.59A3.58,3.58,0,0,1,544.36,600.88Z"/><path class="cls-6" d="M560.18,600.88a3.59,3.59,0,1,1-3.58-3.59A3.58,3.58,0,0,1,560.18,600.88Z"/><path class="cls-5" d="M592.29,600.88a3.59,3.59,0,1,1-3.58-3.59A3.58,3.58,0,0,1,592.29,600.88Z"/><path class="cls-5" d="M664.62,600.88a3.59,3.59,0,1,1-3.59-3.59A3.58,3.58,0,0,1,664.62,600.88Z"/><path class="cls-1" d="M576,600.88a3.59,3.59,0,1,1-3.59-3.59A3.58,3.58,0,0,1,576,600.88Z"/><path class="cls-1" d="M621.33,600.88a3.59,3.59,0,1,1-3.59-3.59A3.58,3.58,0,0,1,621.33,600.88Z"/><polygon class="cls-2" points="731.08 431.18 683.35 431.3 683.35 352.52 731.08 352.4 731.08 431.18"/><polygon class="cls-2" points="731.08 527.78 683.35 527.91 683.35 449.13 731.08 449 731.08 527.78"/><polygon class="cls-2" points="731.08 625.61 683.35 625.74 683.35 546.96 731.08 546.83 731.08 625.61"/><rect class="cls-4" x="382.21" y="305.9" width="62.52" height="9.62"/><polygon class="cls-2" points="731.08 335.39 683.35 335.52 683.35 256.14 731.08 256.01 731.08 335.39"/><rect class="cls-3" x="368.11" y="256.01" width="317.53" height="78.78"/><rect class="cls-2" x="382.21" y="272.23" width="62.52" height="9.62"/><rect class="cls-2" x="382.21" y="288.78" width="62.52" height="9.62"/><path class="cls-4" d="M469.46,278.05a3.59,3.59,0,1,1-3.59-3.59A3.58,3.58,0,0,1,469.46,278.05Z"/><path class="cls-4" d="M485.28,278.05a3.59,3.59,0,1,1-3.58-3.59A3.58,3.58,0,0,1,485.28,278.05Z"/><path class="cls-4" d="M501.11,278.05a3.59,3.59,0,1,1-3.59-3.59A3.58,3.58,0,0,1,501.11,278.05Z"/><path class="cls-4" d="M516.94,278.05a3.59,3.59,0,1,1-3.59-3.59A3.58,3.58,0,0,1,516.94,278.05Z"/><path class="cls-4" d="M639.58,278.05a3.59,3.59,0,1,1-3.58-3.59A3.58,3.58,0,0,1,639.58,278.05Z"/><path class="cls-4" d="M655.72,278.05a3.59,3.59,0,1,1-3.58-3.59A3.58,3.58,0,0,1,655.72,278.05Z"/><path class="cls-4" d="M532.76,278.05a3.59,3.59,0,1,1-3.58-3.59A3.58,3.58,0,0,1,532.76,278.05Z"/><path class="cls-4" d="M610.49,278.05a3.59,3.59,0,1,1-3.59-3.59A3.58,3.58,0,0,1,610.49,278.05Z"/><path class="cls-5" d="M548.59,278.05a3.59,3.59,0,1,1-3.58-3.59A3.58,3.58,0,0,1,548.59,278.05Z"/><path class="cls-6" d="M564.42,278.05a3.59,3.59,0,1,1-3.59-3.59A3.58,3.58,0,0,1,564.42,278.05Z"/><path class="cls-5" d="M596.53,278.05a3.59,3.59,0,1,1-3.59-3.59A3.58,3.58,0,0,1,596.53,278.05Z"/><path class="cls-6" d="M668.85,278.05a3.59,3.59,0,1,1-3.58-3.59A3.58,3.58,0,0,1,668.85,278.05Z"/><path class="cls-1" d="M580.25,278.05a3.59,3.59,0,1,1-3.59-3.59A3.58,3.58,0,0,1,580.25,278.05Z"/><path class="cls-1" d="M625.56,278.05a3.59,3.59,0,1,1-3.59-3.59A3.58,3.58,0,0,1,625.56,278.05Z"/><path class="cls-4" d="M661.68,295.33a3.59,3.59,0,1,1,3.59,3.59A3.58,3.58,0,0,1,661.68,295.33Z"/><circle class="cls-4" cx="649.44" cy="295.33" r="3.59"/><path class="cls-4" d="M630,295.33a3.59,3.59,0,1,1,3.58,3.59A3.58,3.58,0,0,1,630,295.33Z"/><path class="cls-4" d="M614.2,295.33a3.59,3.59,0,1,1,3.59,3.59A3.58,3.58,0,0,1,614.2,295.33Z"/><path class="cls-4" d="M491.56,295.33a3.59,3.59,0,1,1,3.58,3.59A3.58,3.58,0,0,1,491.56,295.33Z"/><path class="cls-4" d="M475.42,295.33a3.59,3.59,0,1,1,3.58,3.59A3.58,3.58,0,0,1,475.42,295.33Z"/><path class="cls-4" d="M598.37,295.33a3.59,3.59,0,1,1,3.59,3.59A3.58,3.58,0,0,1,598.37,295.33Z"/><circle class="cls-4" cx="524.23" cy="295.33" r="3.59"/><circle class="cls-5" cx="586.13" cy="295.33" r="3.59"/><circle class="cls-6" cx="570.31" cy="295.33" r="3.59"/><path class="cls-6" d="M534.61,295.33a3.59,3.59,0,1,1,3.58,3.59A3.58,3.58,0,0,1,534.61,295.33Z"/><circle class="cls-5" cx="465.87" cy="295.33" r="3.59"/><path class="cls-1" d="M550.89,295.33a3.59,3.59,0,1,1,3.59,3.59A3.58,3.58,0,0,1,550.89,295.33Z"/><path class="cls-1" d="M505.58,295.33a3.59,3.59,0,1,1,3.58,3.59A3.58,3.58,0,0,1,505.58,295.33Z"/><path class="cls-4" d="M469.46,310.71a3.59,3.59,0,1,1-3.59-3.59A3.58,3.58,0,0,1,469.46,310.71Z"/><path class="cls-4" d="M485.28,310.71a3.59,3.59,0,1,1-3.58-3.59A3.58,3.58,0,0,1,485.28,310.71Z"/><path class="cls-4" d="M501.11,310.71a3.59,3.59,0,1,1-3.59-3.59A3.58,3.58,0,0,1,501.11,310.71Z"/><path class="cls-4" d="M516.94,310.71a3.59,3.59,0,1,1-3.59-3.59A3.58,3.58,0,0,1,516.94,310.71Z"/><path class="cls-4" d="M639.58,310.71a3.59,3.59,0,1,1-3.58-3.59A3.58,3.58,0,0,1,639.58,310.71Z"/><path class="cls-4" d="M655.72,310.71a3.59,3.59,0,1,1-3.58-3.59A3.58,3.58,0,0,1,655.72,310.71Z"/><path class="cls-4" d="M532.76,310.71a3.59,3.59,0,1,1-3.58-3.59A3.58,3.58,0,0,1,532.76,310.71Z"/><path class="cls-4" d="M610.49,310.71a3.59,3.59,0,1,1-3.59-3.59A3.58,3.58,0,0,1,610.49,310.71Z"/><path class="cls-5" d="M548.59,310.71a3.59,3.59,0,1,1-3.58-3.59A3.58,3.58,0,0,1,548.59,310.71Z"/><path class="cls-6" d="M564.42,310.71a3.59,3.59,0,1,1-3.59-3.59A3.58,3.58,0,0,1,564.42,310.71Z"/><path class="cls-6" d="M596.53,310.71a3.59,3.59,0,1,1-3.59-3.59A3.58,3.58,0,0,1,596.53,310.71Z"/><path class="cls-5" d="M668.85,310.71a3.59,3.59,0,1,1-3.58-3.59A3.58,3.58,0,0,1,668.85,310.71Z"/><path class="cls-1" d="M580.25,310.71a3.59,3.59,0,1,1-3.59-3.59A3.58,3.58,0,0,1,580.25,310.71Z"/><path class="cls-1" d="M625.56,310.71a3.59,3.59,0,1,1-3.59-3.59A3.58,3.58,0,0,1,625.56,310.71Z"/><polygon class="cls-2" points="728.14 724.18 680.4 724.31 680.4 645.53 728.14 645.4 728.14 724.18"/><rect class="cls-3" x="365.17" y="645.53" width="317.53" height="78.78"/><rect class="cls-2" x="379.27" y="661.75" width="62.52" height="9.62"/><rect class="cls-2" x="379.27" y="678.3" width="62.52" height="9.62"/><path class="cls-4" d="M466.52,667.56a3.59,3.59,0,1,1-3.59-3.58A3.59,3.59,0,0,1,466.52,667.56Z"/><path class="cls-4" d="M482.34,667.56a3.59,3.59,0,1,1-3.58-3.58A3.58,3.58,0,0,1,482.34,667.56Z"/><path class="cls-4" d="M498.17,667.56a3.59,3.59,0,1,1-3.59-3.58A3.59,3.59,0,0,1,498.17,667.56Z"/><path class="cls-4" d="M514,667.56a3.59,3.59,0,1,1-3.59-3.58A3.59,3.59,0,0,1,514,667.56Z"/><path class="cls-4" d="M636.64,667.56a3.59,3.59,0,1,1-3.59-3.58A3.59,3.59,0,0,1,636.64,667.56Z"/><path class="cls-4" d="M652.78,667.56a3.59,3.59,0,1,1-3.59-3.58A3.59,3.59,0,0,1,652.78,667.56Z"/><path class="cls-4" d="M529.82,667.56a3.59,3.59,0,1,1-3.58-3.58A3.58,3.58,0,0,1,529.82,667.56Z"/><path class="cls-4" d="M607.55,667.56A3.59,3.59,0,1,1,604,664,3.59,3.59,0,0,1,607.55,667.56Z"/><path class="cls-5" d="M545.65,667.56a3.59,3.59,0,1,1-3.59-3.58A3.59,3.59,0,0,1,545.65,667.56Z"/><path class="cls-6" d="M561.48,667.56a3.59,3.59,0,1,1-3.59-3.58A3.59,3.59,0,0,1,561.48,667.56Z"/><path class="cls-5" d="M593.59,667.56A3.59,3.59,0,1,1,590,664,3.59,3.59,0,0,1,593.59,667.56Z"/><path class="cls-5" d="M665.91,667.56a3.59,3.59,0,1,1-3.58-3.58A3.58,3.58,0,0,1,665.91,667.56Z"/><path class="cls-1" d="M577.3,667.56a3.59,3.59,0,1,1-3.58-3.58A3.58,3.58,0,0,1,577.3,667.56Z"/><path class="cls-1" d="M622.62,667.56A3.59,3.59,0,1,1,619,664,3.59,3.59,0,0,1,622.62,667.56Z"/><path class="cls-4" d="M658.74,684.85a3.59,3.59,0,1,1,3.59,3.59A3.58,3.58,0,0,1,658.74,684.85Z"/><path class="cls-4" d="M642.91,684.85a3.59,3.59,0,1,1,3.59,3.59A3.58,3.58,0,0,1,642.91,684.85Z"/><path class="cls-4" d="M627.09,684.85a3.59,3.59,0,1,1,3.58,3.59A3.58,3.58,0,0,1,627.09,684.85Z"/><path class="cls-4" d="M611.26,684.85a3.59,3.59,0,1,1,3.58,3.59A3.58,3.58,0,0,1,611.26,684.85Z"/><path class="cls-4" d="M488.61,684.85a3.59,3.59,0,1,1,3.59,3.59A3.58,3.58,0,0,1,488.61,684.85Z"/><path class="cls-4" d="M472.47,684.85a3.59,3.59,0,1,1,3.59,3.59A3.58,3.58,0,0,1,472.47,684.85Z"/><path class="cls-4" d="M595.43,684.85a3.59,3.59,0,1,1,3.59,3.59A3.58,3.58,0,0,1,595.43,684.85Z"/><path class="cls-4" d="M517.71,684.85a3.59,3.59,0,1,1,3.58,3.59A3.58,3.58,0,0,1,517.71,684.85Z"/><path class="cls-5" d="M579.6,684.85a3.59,3.59,0,1,1,3.59,3.59A3.58,3.58,0,0,1,579.6,684.85Z"/><path class="cls-6" d="M563.78,684.85a3.59,3.59,0,1,1,3.58,3.59A3.58,3.58,0,0,1,563.78,684.85Z"/><path class="cls-5" d="M531.67,684.85a3.59,3.59,0,1,1,3.58,3.59A3.58,3.58,0,0,1,531.67,684.85Z"/><path class="cls-5" d="M459.34,684.85a3.59,3.59,0,1,1,3.59,3.59A3.58,3.58,0,0,1,459.34,684.85Z"/><path class="cls-1" d="M548,684.85a3.59,3.59,0,1,1,3.59,3.59A3.58,3.58,0,0,1,548,684.85Z"/><path class="cls-1" d="M502.64,684.85a3.59,3.59,0,1,1,3.58,3.59A3.58,3.58,0,0,1,502.64,684.85Z"/><path class="cls-4" d="M466.52,700.23a3.59,3.59,0,1,1-3.59-3.59A3.58,3.58,0,0,1,466.52,700.23Z"/><path class="cls-4" d="M482.34,700.23a3.59,3.59,0,1,1-3.58-3.59A3.58,3.58,0,0,1,482.34,700.23Z"/><circle class="cls-4" cx="494.58" cy="700.23" r="3.59"/><path class="cls-4" d="M514,700.23a3.59,3.59,0,1,1-3.59-3.59A3.58,3.58,0,0,1,514,700.23Z"/><circle class="cls-4" cx="633.05" cy="700.23" r="3.59"/><circle class="cls-4" cx="649.19" cy="700.23" r="3.59"/><path class="cls-4" d="M529.82,700.23a3.59,3.59,0,1,1-3.58-3.59A3.58,3.58,0,0,1,529.82,700.23Z"/><path class="cls-4" d="M607.55,700.23a3.59,3.59,0,1,1-3.59-3.59A3.58,3.58,0,0,1,607.55,700.23Z"/><path class="cls-6" d="M545.65,700.23a3.59,3.59,0,1,1-3.59-3.59A3.58,3.58,0,0,1,545.65,700.23Z"/><circle class="cls-5" cx="557.89" cy="700.23" r="3.59"/><path class="cls-5" d="M593.59,700.23a3.59,3.59,0,1,1-3.59-3.59A3.58,3.58,0,0,1,593.59,700.23Z"/><path class="cls-6" d="M665.91,700.23a3.59,3.59,0,1,1-3.58-3.59A3.58,3.58,0,0,1,665.91,700.23Z"/><path class="cls-1" d="M577.3,700.23a3.59,3.59,0,1,1-3.58-3.59A3.58,3.58,0,0,1,577.3,700.23Z"/><circle class="cls-1" cx="619.03" cy="700.23" r="3.59"/></svg>