<svg id="Capa_1" data-name="Capa 1" xmlns="http://www.w3.org/2000/svg" viewBox="0 0 1080 1080"><defs><style>.cls-1{fill:#f7b83b;}.cls-2{fill:#57b23f;}.cls-3{fill:#083c44;}.cls-4{fill:#a9dea9;}.cls-12,.cls-5{fill:#fff;}.cls-6{fill:#ffc800;}.cls-7{fill:#375a64;}.cls-8{fill:#c8c8c8;}.cls-9{fill:#dcdcdc;}.cls-10{fill:#a8a8a8;}.cls-11{fill:#ececec;}.cls-12{opacity:0.7;}.cls-13{fill:#607d8b;}.cls-14{fill:#cfd8dc;}.cls-15{fill:#f5f5f5;}.cls-16{fill:#37474f;}</style></defs><circle class="cls-1" cx="541.21" cy="543.52" r="380.61"/><rect class="cls-2" x="311.57" y="366.66" width="461.83" height="308.93"/><rect class="cls-3" x="314.92" y="370.43" width="455.12" height="301.39"/><rect class="cls-4" x="251.41" y="698.76" width="582.13" height="21.2"/><polygon class="cls-2" points="251.41 698.76 311.56 675.59 773.39 675.59 833.55 698.76 251.41 698.76"/><polygon class="cls-3" points="316.94 690.54 355.75 675.59 729.21 675.59 768.02 690.54 316.94 690.54"/><rect class="cls-5" x="340.64" y="393.33" width="403.68" height="255.6"/><rect class="cls-6" x="340.64" y="403.16" width="396.51" height="61.78"/><rect class="cls-7" x="340.64" y="393.33" width="403.68" height="9.84"/><path class="cls-8" d="M349.9,398.25a1.86,1.86,0,1,1-1.86-1.87A1.86,1.86,0,0,1,349.9,398.25Z"/><path class="cls-5" d="M357.5,398.25a1.86,1.86,0,1,1-1.86-1.87A1.86,1.86,0,0,1,357.5,398.25Z"/><path class="cls-6" d="M365.1,398.25a1.86,1.86,0,1,1-1.86-1.87A1.86,1.86,0,0,1,365.1,398.25Z"/><rect class="cls-9" x="737.15" y="403.16" width="7.17" height="245.76"/><path class="cls-10" d="M740.73,488.37h0a1.85,1.85,0,0,1-1.85-1.85V406.45a1.85,1.85,0,0,1,1.85-1.85h0a1.85,1.85,0,0,1,1.85,1.85v80.07A1.85,1.85,0,0,1,740.73,488.37Z"/><rect class="cls-5" x="619.99" y="415.15" width="96.48" height="12.88"/><path class="cls-8" d="M716.6,428.16H619.86V415H716.6Zm-96.48-.26h96.22V415.29H620.12Z"/><rect class="cls-7" x="703.46" y="415.02" width="13.15" height="13.15"/><path class="cls-5" d="M714.11,425.2l-1.19.9-2.2-2.91-.81-1.06a2,2,0,0,0,.47-.26,2,2,0,0,0,.61-.79l.85,1.12Z"/><path class="cls-5" d="M711.77,418.35a3.25,3.25,0,1,0-1,4.84,2.66,2.66,0,0,0,.45-.29,3.17,3.17,0,0,0,.67-.7A3.23,3.23,0,0,0,711.77,418.35Zm-1.39,3.52a2,2,0,0,1-.47.26,1.94,1.94,0,1,1,.83-3,2,2,0,0,1,.25,1.93A2,2,0,0,1,710.38,421.87Z"/><rect class="cls-8" x="622.68" y="417.69" width="0.69" height="7.81"/><rect class="cls-5" x="392.94" y="415.15" width="222.21" height="12.88"/><path class="cls-8" d="M615.28,428.16H392.8V415H615.28Zm-222.21-.26H615V415.29H393.07Z"/><rect class="cls-8" x="395.63" y="417.69" width="0.69" height="7.81"/><polygon class="cls-5" points="368.63 426 363.94 421.68 368.62 417.19 369.35 417.95 365.47 421.67 369.34 425.23 368.63 426"/><polygon class="cls-5" points="379.95 417.19 384.64 421.5 379.96 425.99 379.23 425.23 383.11 421.52 379.24 417.96 379.95 417.19"/><rect class="cls-11" x="532.51" y="481.87" width="188.4" height="144.55" transform="translate(1253.41 1108.28) rotate(180)"/><path class="cls-5" d="M551.26,513.48A17.11,17.11,0,1,0,564.69,500,17.13,17.13,0,0,0,551.26,513.48Z"/><polygon class="cls-8" points="594.66 595.27 720.9 595.27 657.78 517.48 594.66 595.27"/><polygon class="cls-9" points="532.51 595.34 644.46 595.34 588.48 544.68 532.51 595.34"/><rect class="cls-9" x="532.51" y="595.27" width="188.4" height="31.14"/><rect class="cls-10" x="360.27" y="571.24" width="54.11" height="4.55"/><rect class="cls-11" x="360.27" y="581.8" width="156.59" height="4.55"/><rect class="cls-11" x="360.27" y="591.81" width="156.59" height="4.55"/><rect class="cls-11" x="360.27" y="601.83" width="156.59" height="4.55"/><rect class="cls-11" x="360.27" y="611.85" width="156.59" height="4.55"/><rect class="cls-11" x="360.27" y="621.86" width="156.59" height="4.55"/><rect class="cls-10" x="360.27" y="481.87" width="54.11" height="12.18"/><rect class="cls-11" x="360.27" y="502.45" width="111.17" height="4.55"/><rect class="cls-11" x="360.27" y="512.46" width="111.17" height="4.55"/><rect class="cls-11" x="360.27" y="522.48" width="111.17" height="4.55"/><rect class="cls-11" x="360.27" y="532.49" width="111.17" height="4.55"/><rect class="cls-11" x="360.27" y="545.82" width="111.17" height="4.55"/><rect class="cls-11" x="360.27" y="555.83" width="111.17" height="4.55"/><rect class="cls-12" x="340.64" y="393.33" width="403.68" height="255.6"/><rect class="cls-2" x="401.69" y="417.18" width="279.48" height="221.12"/><rect class="cls-3" x="401.96" y="402.16" width="279.48" height="14.89"/><circle class="cls-8" cx="413.16" cy="409.61" r="2.82"/><path class="cls-5" d="M427.48,409.61a2.82,2.82,0,1,1-2.81-2.82A2.81,2.81,0,0,1,427.48,409.61Z"/><circle class="cls-6" cx="436.17" cy="409.61" r="2.82"/><path class="cls-13" d="M577.55,604.87,578,607c3.1,12.26-6.7,25.29-22.11,26.55a197.9,197.9,0,0,1-31.93,0c-15.41-1.24-25.21-14.28-22.12-26.55l.48-2.17a5.67,5.67,0,0,1,6.58-4.22,166.79,166.79,0,0,0,62,0A5.67,5.67,0,0,1,577.55,604.87Z"/><path class="cls-14" d="M651.75,591.78A11.08,11.08,0,0,0,641.48,586a3.2,3.2,0,0,0-.69,0,12.78,12.78,0,0,1-10.27-3.69L616,568.17l-55.22-46.83,58.56-51.17,6.86-6.71a12.86,12.86,0,0,1,10.27-3.72,13.37,13.37,0,0,0,2.53,0,11,11,0,0,0,8.43-5.75,10.26,10.26,0,0,0,0-9.77,11.11,11.11,0,0,0-15.75-4,16.85,16.85,0,0,0-1.65,1.39,9.49,9.49,0,0,0,1.34-1.69,10.78,10.78,0,0,0-14.07-15.37,10.8,10.8,0,0,0-5.82,8.39,9.16,9.16,0,0,0,0,2.34,12.35,12.35,0,0,1-3.76,10.08l-3.41,3.34-4.1,3.6-59.4,52.12-65.73-55.72-3.41-3.34a13.5,13.5,0,0,1-2.5-3.41,11.74,11.74,0,0,1-1.22-6.67,10.74,10.74,0,0,0-5.87-10.73,10.58,10.58,0,0,0-10,0,10.5,10.5,0,0,0-4.1,15.37,11.44,11.44,0,0,0,1.34,1.69,10.94,10.94,0,0,0-1.65-1.39,11.11,11.11,0,0,0-15.75,4,10.19,10.19,0,0,0-1.19,4.06A10,10,0,0,0,432,454a11,11,0,0,0,11,5.75,12.79,12.79,0,0,1,10.27,3.72l6.86,6.71,61,51.58-56.78,49.83-11,10.8A12.78,12.78,0,0,1,443,586.07a11.07,11.07,0,0,0-11,5.71,9.92,9.92,0,0,0-1.19,3.87,9.78,9.78,0,0,0,1.19,5.94,11,11,0,0,0,15.71,4,9.49,9.49,0,0,0,1.69-1.34,12.84,12.84,0,0,0-1.38,1.65,10.6,10.6,0,0,0,4.1,15.4,10.75,10.75,0,0,0,10,0,10.54,10.54,0,0,0,5.83-10.73,12,12,0,0,1,2.61-8.7,11,11,0,0,1,1.18-1.38l12.61-12.34L541,538.62l57.51,48.63,3.3,3.22,10.24,10a12.41,12.41,0,0,1,3.79,10.08c0,.16,0,.27,0,.43a10.83,10.83,0,1,0,19.93-5.1,13.71,13.71,0,0,0-1.38-1.65,9.14,9.14,0,0,0,1.69,1.34,11,11,0,0,0,15.71-4A10.12,10.12,0,0,0,651.75,591.78Z"/><path class="cls-13" d="M647.42,454a11,11,0,0,1-8.43,5.75,10.14,10.14,0,0,0-1.15-5.94,11.1,11.1,0,0,0-15.75-4,15.46,15.46,0,0,0-1.65,1.38,9.49,9.49,0,0,0,1.34-1.69,10.51,10.51,0,0,0-4.1-15.37,10.32,10.32,0,0,0-6.21-1.19,10.8,10.8,0,0,1,5.82-8.39,10.73,10.73,0,0,1,14.07,15.37,9.49,9.49,0,0,1-1.34,1.69,16.85,16.85,0,0,1,1.65-1.39,11.11,11.11,0,0,1,15.75,4A10.26,10.26,0,0,1,647.42,454Z"/><path class="cls-13" d="M651.75,601.59a11,11,0,0,1-15.71,4,9.14,9.14,0,0,1-1.69-1.34,13.71,13.71,0,0,1,1.38,1.65A10.81,10.81,0,1,1,615.8,611a10.28,10.28,0,0,0,4.33-1.19,10.59,10.59,0,0,0,4.1-15.41,14.36,14.36,0,0,0-1.38-1.65,9.49,9.49,0,0,0,1.69,1.34,11,11,0,0,0,15.71-4,9.55,9.55,0,0,0,1.23-4.06,11.08,11.08,0,0,1,10.27,5.75A10.12,10.12,0,0,1,651.75,601.59Z"/><path class="cls-13" d="M596.37,554.91C600.7,572,592,572,578.93,572c-.54,0-1,0-1.53.08a9.7,9.7,0,0,0-1.3.15c-10.24,1.72-9.93,13.26-5.91,21.16,4.37,8.54-30.5,8.54-30.5,8.54s-2.15,0-5.33-.11c-9.58-.42-28.48-2-25.18-8.43,4.37-8.55,4.37-21.39-8.7-21.39a84,84,0,0,1-9.12-.31c-7.63-.84-11.58-4.1-8.32-16.78,4.33-17.1-17.44-17.1-13.07-51.32C474.11,471,498.1,446.14,534.36,444c1.76-.15,3.52-.19,5.33-.19,39.24,0,65.38,25.64,69.75,59.83S592,537.81,596.37,554.91Z"/><path class="cls-15" d="M566.9,604.87l.48,2.17c3.16,12.26-6.93,25.41-22.87,26.33a176.2,176.2,0,0,1-19.77,0c-15.9-.92-26-14.08-22.87-26.33l.48-2.17a5.71,5.71,0,0,1,6.59-4.22,142.19,142.19,0,0,0,51.38,0A5.67,5.67,0,0,1,566.9,604.87Z"/><path class="cls-15" d="M585.71,554.91c3.22,12.68-.76,15.94-8.35,16.78l-1.3.12c-2.34.19-4.95.19-7.78.19-13.07,0-13.07,12.84-8.74,21.39,3.29,6.43-15.6,8-25.18,8.43-9.58-.42-28.48-2-25.18-8.43,4.37-8.55,4.37-21.39-8.7-21.39a84,84,0,0,1-9.12-.31c-7.63-.84-11.58-4.1-8.32-16.78,4.33-17.1-17.44-17.1-13.07-51.32C474.11,471,498.1,446.14,534.36,444c36.29,2.19,60.25,27,64.42,59.64C603.15,537.81,581.34,537.81,585.71,554.91Z"/><path class="cls-16" d="M524.84,526.74a10,10,0,0,1,5.11,5.75c2,6.23-3.29,13.38-11.74,16s-17-.39-19-6.63c-1.81-5.63,2.34-12,9.49-15.12a14.27,14.27,0,0,0,13.76,1.07Z"/><path class="cls-16" d="M580.66,541.85c-2,6.24-10.48,9.23-18.93,6.63s-13.77-9.75-11.77-16a9.81,9.81,0,0,1,5.15-5.75l3.31,1.42a13,13,0,0,0,12.76-1.42C578.32,529.8,582.5,536.22,580.66,541.85Z"/><path class="cls-16" d="M548.41,565.2a8.72,8.72,0,0,1-17.44,0c0-4.72,3.9-12.82,8.72-12.82S548.41,560.46,548.41,565.2Z"/><path d="M539.69,605.76c-10.86,0-29.7-1-33.77-7.64a6.4,6.4,0,0,1-.15-6.48,14.74,14.74,0,0,0,1.11-13.07c-.41-.68-1.67-2.73-6.42-2.73-8.56,0-15.95,0-19.93-5.14-2.81-3.62-3.19-8.94-1.21-16.74,1.45-5.66-.67-8.62-4.16-13.54-4.93-6.9-11.67-16.37-9-37.3,4.81-37.8,34.36-63.2,73.53-63.2s68.72,25.4,73.54,63.2c2.69,20.93-4.07,30.39-9,37.3-3.5,4.92-5.61,7.88-4.17,13.54,2,7.8,1.6,13.12-1.21,16.74-4,5.14-11.38,5.14-19.93,5.14-4.74,0-6,2-6.42,2.73a14.71,14.71,0,0,0,1.12,13.07,6.42,6.42,0,0,1-.16,6.48C569.39,604.76,550.55,605.76,539.69,605.76Zm-26.78-11.29c3,2,14.9,3.62,26.78,3.62s23.79-1.65,26.78-3.62c-2.64-5.54-4.25-13.79-.51-19.9a14.06,14.06,0,0,1,13-6.4c6.27,0,12.2,0,13.89-2.17.83-1.07,1.47-3.7-.17-10.15-2.3-9.1,1.58-14.56,5.37-19.87,4.64-6.52,9.91-13.94,7.63-31.89-4.38-34.32-30.28-56.5-65.94-56.5s-61.56,22.18-65.92,56.5c-2.3,17.95,3,25.36,7.63,31.89,3.77,5.29,7.67,10.77,5.37,19.87-1.65,6.45-1,9.08-.17,10.15,1.69,2.17,7.61,2.17,13.89,2.17a14,14,0,0,1,13,6.4C517.16,580.67,515.54,589,512.91,594.47Z"/><path d="M512.15,553.23A16.54,16.54,0,0,1,495.59,543c-2.43-7.53,2.46-15.86,11.62-19.8a3.84,3.84,0,0,1,3.63.32,10.4,10.4,0,0,0,10.06.76l2.35-1.07a3.85,3.85,0,0,1,3.33.07,13.82,13.82,0,0,1,7,8,13.67,13.67,0,0,1-1.09,10.55,21.9,21.9,0,0,1-13.16,10.28A24.36,24.36,0,0,1,512.15,553.23Zm-3.55-22.16c-4.28,2.44-6.74,6.42-5.71,9.58,1.34,4.22,7.84,6.1,14.2,4.15a14.51,14.51,0,0,0,8.62-6.52,6.14,6.14,0,0,0,.59-4.65,5.63,5.63,0,0,0-1.77-2.57l-.46.2A18,18,0,0,1,508.6,531.07Z"/><path d="M567.79,553.24a24.56,24.56,0,0,1-7.18-1.1,21.92,21.92,0,0,1-13.2-10.28,13.21,13.21,0,0,1,6-18.55,3.82,3.82,0,0,1,3.22-.1l3.31,1.43a9.22,9.22,0,0,0,9-1,3.81,3.81,0,0,1,3.76-.41c9.17,3.94,14,12.26,11.62,19.81A16.52,16.52,0,0,1,567.79,553.24Zm-12.35-22.19a5.72,5.72,0,0,0-1.84,2.64,6.07,6.07,0,0,0,.6,4.6,14.47,14.47,0,0,0,8.66,6.51c6.33,2,12.81.06,14.15-4.13,1-3.16-1.4-7.12-5.64-9.55a16.94,16.94,0,0,1-14.47.56Z"/><path d="M539.69,577.58a12.48,12.48,0,0,1-12.55-12.38c0-5.88,4.76-16.66,12.55-16.66s12.55,10.78,12.55,16.66A12.48,12.48,0,0,1,539.69,577.58Zm0-21.37c-1.68,0-4.88,5.36-4.88,9a4.88,4.88,0,0,0,9.76,0C544.57,561.58,541.37,556.21,539.69,556.21Z"/><path d="M460,474a3.86,3.86,0,0,1-2.69-1.1l-6.84-6.72a9,9,0,0,0-7.17-2.64,14.85,14.85,0,0,1-14.74-7.71,14.1,14.1,0,0,1,0-13.46,14.84,14.84,0,0,1,9.43-7.32,15.07,15.07,0,0,1,4.33-.43,14,14,0,0,1,.42-4.08,14.74,14.74,0,0,1,29,5.16,8.41,8.41,0,0,0,2.63,6.89l3.4,3.34a3.83,3.83,0,1,1-5.37,5.47l-3.4-3.33a16.17,16.17,0,0,1-4.87-13.28,6.85,6.85,0,0,0-3.84-6.9,6.77,6.77,0,0,0-6.34,0,7.06,7.06,0,0,0-3.73,4.52,6.6,6.6,0,0,0,1,5.34,6.2,6.2,0,0,0,.87,1.1,3.83,3.83,0,1,1-5.37,5.47,12.78,12.78,0,0,0-1.27-1,7.29,7.29,0,0,0-10.08,2.81,6.48,6.48,0,0,0,0,6.08,7.16,7.16,0,0,0,7.16,3.78,16.71,16.71,0,0,1,13.42,4.79l6.84,6.71a3.83,3.83,0,0,1-2.68,6.57Z"/><path d="M619.35,474a3.84,3.84,0,0,1-2.69-6.57l6.84-6.72a16.81,16.81,0,0,1,13.42-4.79,7.11,7.11,0,0,0,7.14-3.75,6.47,6.47,0,0,0,0-6.13,7.18,7.18,0,0,0-4.57-3.56,7.34,7.34,0,0,0-5.72.92c-.36.28-.72.57-1,.88a3.83,3.83,0,0,1-5.36-5.46,6.89,6.89,0,0,0,.83-1,6.6,6.6,0,0,0,1-5.4,7,7,0,0,0-3.66-4.49,7.05,7.05,0,0,0-10.24,6.88A16.19,16.19,0,0,1,610.41,448l-3.4,3.33a3.83,3.83,0,0,1-5.37-5.47l3.41-3.34a8.49,8.49,0,0,0,2.62-6.9,14.56,14.56,0,0,1,7.85-14.56,14.77,14.77,0,0,1,21.08,9.44,13.82,13.82,0,0,1,.41,4.1,14.84,14.84,0,0,1,13.76,7.72,14.12,14.12,0,0,1,0,13.5,14.81,14.81,0,0,1-14.72,7.67,9,9,0,0,0-7.18,2.64L622,472.89A3.84,3.84,0,0,1,619.35,474Z"/><path d="M457.1,626.38a14.77,14.77,0,0,1-14.3-11.08,14.48,14.48,0,0,1-.42-4.09,14.83,14.83,0,0,1-13.75-7.8,13.86,13.86,0,0,1,0-13.49,14.88,14.88,0,0,1,14.71-7.67,9,9,0,0,0,7.18-2.6l11-10.81a3.83,3.83,0,0,1,5.36,5.47l-11,10.82a16.7,16.7,0,0,1-13.42,4.74,7.18,7.18,0,0,0-7.15,3.77,6.2,6.2,0,0,0,0,6.05,7.15,7.15,0,0,0,10.25,2.71,5.85,5.85,0,0,0,1.12-.86,3.84,3.84,0,1,1,5.37,5.47,12.94,12.94,0,0,0-1.07,1.26,6.68,6.68,0,0,0-.76,5.16,7.07,7.07,0,0,0,10,4.52,6.82,6.82,0,0,0,3.83-6.9A16.17,16.17,0,0,1,469,597.79l12.59-12.36a3.84,3.84,0,0,1,5.37,5.48l-12.6,12.35a8.49,8.49,0,0,0-2.68,6.9,14.71,14.71,0,0,1-14.6,16.22Z"/><path d="M448,609.76a3.87,3.87,0,0,1-2.69-1.09l-.3-.3a3.84,3.84,0,0,1,5.37-5.49l.31.31a3.83,3.83,0,0,1-2.69,6.57Z"/><path d="M626.63,626.38A14.71,14.71,0,0,1,612,610.16a8.5,8.5,0,0,0-2.69-6.9L595.81,590a3.83,3.83,0,1,1,5.37-5.47l13.51,13.25a16.19,16.19,0,0,1,4.94,13.26,6.82,6.82,0,0,0,3.83,6.9,7.06,7.06,0,0,0,10-4.5,6.74,6.74,0,0,0-.93-5.4c-.28-.35-.58-.69-.89-1a3.83,3.83,0,0,1,5.36-5.48,6.66,6.66,0,0,0,1.07.83,7.24,7.24,0,0,0,5.73,1,7.11,7.11,0,0,0,4.54-3.58,6.18,6.18,0,0,0,0-6.09,7.18,7.18,0,0,0-7.17-3.79,16.71,16.71,0,0,1-13.4-4.75l-14.51-14.23a3.84,3.84,0,0,1-1.07-3.72,3.83,3.83,0,0,1,6.43-1.76l14.52,14.24a9,9,0,0,0,7.17,2.6A14.89,14.89,0,0,1,655.12,590a13.86,13.86,0,0,1,0,13.53,14.6,14.6,0,0,1-9.38,7.28,15.11,15.11,0,0,1-4.34.44,13.68,13.68,0,0,1-.41,4.08A14.76,14.76,0,0,1,626.63,626.38Z"/><path d="M635.73,609.76a3.83,3.83,0,0,1-2.68-6.57l.3-.3a3.84,3.84,0,0,1,5.37,5.47l-.31.3A3.85,3.85,0,0,1,635.73,609.76Z"/><path d="M488.21,511.41a3.85,3.85,0,0,1-3.77-3.2,43.88,43.88,0,0,1,20.82-42.16,3.83,3.83,0,0,1,4.25,6.38A36.35,36.35,0,0,0,492,507a3.83,3.83,0,0,1-3.79,4.45Z"/><path d="M522.71,461.58a3.84,3.84,0,1,1-3.84-3.83A3.83,3.83,0,0,1,522.71,461.58Z"/><path d="M519.64,604.23a3.84,3.84,0,0,1-3.73-4.76L519,587.13a3.83,3.83,0,0,1,7.44,1.85l-3.06,12.34A3.84,3.84,0,0,1,519.64,604.23Z"/><path d="M560.27,604.12a3.84,3.84,0,0,1-3.72-2.9L553.49,589a3.83,3.83,0,0,1,7.43-1.86L564,599.35A3.84,3.84,0,0,1,561.2,604,3.71,3.71,0,0,1,560.27,604.12Z"/><path d="M531.49,605.46a4.9,4.9,0,0,1-.77-.07,3.83,3.83,0,0,1-3-4.52l2.72-13.57a3.83,3.83,0,0,1,7.51,1.51l-2.72,13.57A3.82,3.82,0,0,1,531.49,605.46Z"/><path d="M548.42,605.46a3.84,3.84,0,0,1-3.76-3.07l-2.72-13.57a3.84,3.84,0,1,1,7.52-1.51l2.72,13.57a3.85,3.85,0,0,1-3,4.52A4.87,4.87,0,0,1,548.42,605.46Z"/><path d="M522.71,615.73a3.82,3.82,0,0,1-3.72-2.91l-3-11.92a3.83,3.83,0,1,1,7.44-1.85L526.43,611a3.83,3.83,0,0,1-3.72,4.75Z"/><path d="M557.2,615.61a3.72,3.72,0,0,1-.94-.11,3.83,3.83,0,0,1-2.78-4.65l3-12a3.83,3.83,0,0,1,7.35,2.18l-.12.39-2.83,11.29A3.81,3.81,0,0,1,557.2,615.61Z"/><path d="M534.2,614.89a3.85,3.85,0,0,1-3.69-2.8l-2.64-9.43,3.65-1.19,3.71-1,2.66,9.5a3.83,3.83,0,0,1-.63,3.35A3.87,3.87,0,0,1,534.2,614.89Z"/><path d="M545.7,614.89A3.84,3.84,0,0,1,542,610l2.65-9.43a3.9,3.9,0,0,1,4.7-2.74,3.76,3.76,0,0,1,2.74,4.57l0,.16-2.68,9.51A3.83,3.83,0,0,1,545.7,614.89Z"/><path d="M540,634.23q-8.16,0-16.27-.65a29.19,29.19,0,0,1-21.59-11.75,23.69,23.69,0,0,1-3.94-19.56l.47-2.07a9.45,9.45,0,0,1,11-7.13,3.83,3.83,0,1,1-1.42,7.53,1.82,1.82,0,0,0-2.13,1.29l-.48,2.15a15.91,15.91,0,0,0,2.71,13.33,21.55,21.55,0,0,0,16,8.57,194.7,194.7,0,0,0,31.3,0,21.57,21.57,0,0,0,16-8.57,15.8,15.8,0,0,0,2.74-13.23l-.51-2.27a1.8,1.8,0,0,0-2.13-1.27l-.53.1a3.83,3.83,0,1,1-1.42-7.53l.53-.1a9.42,9.42,0,0,1,11,7.11l.49,2.18a23.63,23.63,0,0,1-3.95,19.47,29.23,29.23,0,0,1-21.6,11.75C550.83,634,545.39,634.23,540,634.23Z"/></svg>