<svg id="Capa_1" data-name="Capa 1" xmlns="http://www.w3.org/2000/svg" viewBox="0 0 1080 1080"><defs><style>.cls-1{fill:#f7b83b;}.cls-2{fill:#afcdfb;}.cls-3{fill:#083c44;}.cls-4{fill:#57b23f;}.cls-5{fill:#a9dea9;}.cls-6{fill:#fff;}.cls-7{fill:#d3edd3;}</style></defs><circle class="cls-1" cx="540.41" cy="489.76" r="380.61"/><path class="cls-2" d="M360.19,455.62s40.23-68.52,59.26-60.74S360.19,455.62,360.19,455.62Z"/><path class="cls-2" d="M359.1,466.89s89.72-75.65,121.07-58.27S458.05,438.09,437.79,441,359.1,466.89,359.1,466.89Z"/><path class="cls-2" d="M351.54,456.85s-.26-2.73-.69-6.72c-.84-7.76-2.32-20.3-3.76-26.64-2.19-9.58,3.47-18.45,14.56-11.24S354,453.34,354,453.34Z"/><rect class="cls-3" x="461.86" y="610.09" width="161.02" height="81.41"/><rect class="cls-3" x="263.72" y="307.39" width="557.29" height="323.2" rx="12.36"/><rect class="cls-4" x="268.41" y="332.47" width="547.92" height="278.9"/><path class="cls-3" d="M431.25,678.5H653.48a21.24,21.24,0,0,1,21.24,21.24v0a0,0,0,0,1,0,0H410a0,0,0,0,1,0,0v0a21.24,21.24,0,0,1,21.24-21.24Z"/><path class="cls-5" d="M363.12,349.23H721.61a11.34,11.34,0,0,1,11.34,11.34V594.62a0,0,0,0,1,0,0H351.78a0,0,0,0,1,0,0V360.56A11.34,11.34,0,0,1,363.12,349.23Z"/><rect class="cls-6" x="356.25" y="371.47" width="372.22" height="217.76"/><rect class="cls-3" x="356.25" y="550.21" width="372.22" height="23.65"/><rect class="cls-7" x="356.25" y="557.86" width="372.22" height="8.36"/><rect class="cls-1" x="356.25" y="557.82" width="23.42" height="8.45"/><rect class="cls-4" x="374.67" y="556.02" width="19.33" height="12.04" rx="6.02"/><polygon class="cls-3" points="657.57 427.54 545.69 465.21 431.13 427.37 543 389.69 657.57 427.54"/><path class="cls-3" d="M434.57,492.47a5.14,5.14,0,0,0-1.09-9.61v-55.5h-2.35v55.5a5.14,5.14,0,0,0-1.1,9.61,5.12,5.12,0,0,0-2.87,4.6V525.2h10.28V497.07A5.12,5.12,0,0,0,434.57,492.47Z"/><path class="cls-3" d="M545.69,473.25l-71-23.47v36.54A23.72,23.72,0,0,0,498.37,510h92A23.72,23.72,0,0,0,614,486.32V450.23Z"/><path class="cls-1" d="M542.37,532.63a52.29,52.29,0,1,1,37-15.31A51.94,51.94,0,0,1,542.37,532.63Zm0-98.62a46.34,46.34,0,1,0,46.33,46.34A46.39,46.39,0,0,0,542.37,434Z"/><polygon class="cls-1" points="523.47 443.24 523.47 518.34 578.57 480.79 523.47 443.24"/><rect class="cls-3" x="461.86" y="630.59" width="161.02" height="8.97"/></svg>