<svg id="Capa_1" data-name="Capa 1" xmlns="http://www.w3.org/2000/svg" viewBox="0 0 1080 1080"><defs><style>.cls-1{fill:#f7b83b;}.cls-2{fill:#ccf2cc;}.cls-3{fill:#a9dea9;}.cls-4{fill:#fff;}.cls-5{fill:#083c44;}.cls-6{fill:#57b23f;}</style></defs><circle class="cls-1" cx="540" cy="491.4" r="380.61"/><rect class="cls-2" x="352.37" y="318.56" width="387.33" height="275.59" transform="matrix(0.25, -0.97, 0.97, 0.25, -33.02, 870.02)"/><rect class="cls-3" x="361.07" y="346.71" width="387.33" height="275.6" transform="translate(-99.25 823.29) rotate(-68.52)"/><polygon class="cls-4" points="597.78 720.71 349.22 589.63 542.25 253.83 781.19 391.19 597.78 720.71"/><rect class="cls-5" x="644.06" y="233.24" width="11.79" height="232.83" transform="translate(23.15 739.3) rotate(-60.15)"/><rect class="cls-5" x="629.71" y="267.19" width="11.78" height="232.82" transform="translate(-13.33 744.19) rotate(-60.17)"/><rect class="cls-5" x="603.48" y="301.13" width="11.78" height="232.82" transform="translate(-55.96 738.49) rotate(-60.17)"/><rect class="cls-5" x="585.77" y="335.07" width="11.79" height="232.83" transform="translate(-94.31 740.19) rotate(-60.17)"/><polygon class="cls-5" points="468.1 432.64 670.08 548.44 675.95 538.22 473.96 422.41 468.1 432.64"/><rect class="cls-5" x="542.47" y="402.96" width="11.78" height="232.82" transform="translate(-174.96 736.76) rotate(-60.17)"/><path class="cls-6" d="M414.17,476v-7.86a21,21,0,0,0-20.95-20.95H319.9A21,21,0,0,0,299,468.14V698.56a27.57,27.57,0,0,0,27.5,27.49H486.17V476Z"/><path class="cls-6" d="M634.11,476H486.17v250H634.11a27.57,27.57,0,0,0,27.49-27.49V503.49A27.57,27.57,0,0,0,634.11,476Z"/><rect class="cls-3" x="312.05" y="466.83" width="85.1" height="35.35"/></svg>