<svg id="Capa_1" data-name="Capa 1" xmlns="http://www.w3.org/2000/svg" viewBox="0 0 1080 1080"><defs><style>.cls-1{fill:#f7b83b;}.cls-2{fill:#083c44;}.cls-3{fill:#57b23f;}.cls-4{fill:#a9dea9;}.cls-5{fill:#fff;}</style></defs><circle class="cls-1" cx="540" cy="490.45" r="380.61"/><rect class="cls-2" x="302.46" y="295.04" width="476.19" height="398.44"/><rect class="cls-3" x="327.75" y="369.34" width="427.39" height="295.68"/><rect class="cls-3" x="327.75" y="316.64" width="427.39" height="35.48"/><rect class="cls-4" x="359.92" y="381.56" width="27.06" height="8.83"/><rect class="cls-4" x="359.92" y="470.1" width="27.06" height="8.83"/><rect class="cls-1" x="377.57" y="395.68" width="27.06" height="8.83"/><rect class="cls-1" x="408.75" y="395.68" width="27.06" height="8.83"/><rect class="cls-5" x="439.93" y="395.68" width="27.06" height="8.83"/><rect class="cls-5" x="471.11" y="395.68" width="27.07" height="8.83"/><rect class="cls-5" x="505.24" y="395.68" width="47.65" height="8.83"/><rect class="cls-1" x="391.1" y="410.38" width="27.06" height="8.83"/><rect class="cls-1" x="422.28" y="410.38" width="27.06" height="8.83"/><rect class="cls-5" x="453.46" y="410.38" width="27.06" height="8.83"/><rect class="cls-5" x="484.65" y="410.38" width="27.06" height="8.83"/><rect class="cls-1" x="391.1" y="440.54" width="27.06" height="8.82"/><rect class="cls-1" x="422.28" y="440.54" width="27.06" height="8.82"/><rect class="cls-5" x="453.46" y="440.54" width="27.06" height="8.82"/><rect class="cls-5" x="484.65" y="440.54" width="27.06" height="8.82"/><rect class="cls-5" x="518.77" y="440.54" width="47.65" height="8.82"/><rect class="cls-1" x="377.57" y="455.69" width="27.06" height="8.83"/><rect class="cls-1" x="408.75" y="455.69" width="27.06" height="8.83"/><rect class="cls-5" x="439.93" y="455.69" width="27.06" height="8.83"/><rect class="cls-5" x="471.11" y="455.69" width="27.07" height="8.83"/><rect class="cls-1" x="404.63" y="425.09" width="27.06" height="8.82"/><rect class="cls-1" x="435.81" y="425.09" width="27.07" height="8.82"/><rect class="cls-5" x="466.99" y="425.09" width="27.06" height="8.82"/><rect class="cls-5" x="498.18" y="425.09" width="27.06" height="8.82"/><rect class="cls-5" x="532.3" y="425.09" width="47.65" height="8.82"/><rect class="cls-4" x="359.92" y="599.24" width="27.06" height="8.83"/><rect class="cls-1" x="377.57" y="613.36" width="27.06" height="8.83"/><rect class="cls-1" x="408.75" y="613.36" width="27.06" height="8.83"/><rect class="cls-5" x="439.93" y="613.36" width="27.06" height="8.83"/><rect class="cls-5" x="471.11" y="613.36" width="27.07" height="8.83"/><rect class="cls-5" x="505.24" y="613.36" width="47.65" height="8.83"/><rect class="cls-1" x="391.1" y="628.07" width="27.06" height="8.83"/><rect class="cls-1" x="422.28" y="628.07" width="27.06" height="8.83"/><rect class="cls-5" x="453.46" y="628.07" width="27.06" height="8.83"/><rect class="cls-1" x="404.63" y="642.78" width="27.06" height="8.82"/><rect class="cls-1" x="435.81" y="642.78" width="27.07" height="8.82"/><rect class="cls-5" x="466.99" y="642.78" width="27.06" height="8.82"/><rect class="cls-5" x="498.18" y="642.78" width="27.06" height="8.82"/><rect class="cls-5" x="532.3" y="642.78" width="47.65" height="8.82"/><path class="cls-5" d="M381.51,570.14,349,549.21V532.66L381.51,512v15.6l-22.46,13.38,22.46,13.77Z"/><path class="cls-5" d="M391.6,583.63l24.21-100.3h13.32l-24.27,100.3Z"/><path class="cls-5" d="M478,577.82q-5.14,6.95-16.21,6.94t-16.52-7.39q-5.47-7.41-5.48-21.29V512.59q0-22.29,11.68-27.84a24.27,24.27,0,0,1,10.44-2q21,0,21,26.53V523H468.25V510.21q0-7.71-1.3-11a5,5,0,0,0-5.1-3.32,5.3,5.3,0,0,0-5.27,3.52q-1.49,3.51-1.48,10.77v46.6q0,8.06,1.42,11.52a5.57,5.57,0,0,0,10.32-.06q1.41-3.53,1.41-11.62V542.3h14.92v14.12Q483.17,570.87,478,577.82Z"/><path class="cls-5" d="M533.18,577.56q-5.22,7.2-16.7,7.2t-16.84-7.22q-5.36-7.23-5.36-21.81V510.09q0-27.43,22.39-27.44,11.57,0,16.64,7t5.08,20.46v45.64Q538.39,570.37,533.18,577.56Zm-22.26-9.41q1.33,3.47,5.47,3.46t5.45-3.54q1.3-3.55,1.3-12.16v-46.5c0-4.72-.45-8.17-1.33-10.34s-2.63-3.26-5.22-3.26a5.53,5.53,0,0,0-5.44,3.26q-1.56,3.26-1.56,10.29v46.55Q509.59,564.68,510.92,568.15Z"/><path class="cls-5" d="M552.11,583.63V483.84h22.4q11,0,16,6.49t5,19.14l.05,45q0,15.07-5,22.11t-16.5,7Zm15.2-11.79h5c2.79,0,4.83-.91,6.09-2.73s1.9-5.13,1.9-10l-.06-49.27q0-7.77-1.89-11.06c-1.27-2.19-3.45-3.29-6.56-3.29h-4.47Z"/><path class="cls-5" d="M609.15,583.63V483.84H642.6v13.1H624.35v29h17.34v12.81H624.35v31.76h18.93v13.09Z"/><path class="cls-5" d="M653,570.14V554.55l22.46-13.39L653,527.39V512l32.55,20.76v16.61Z"/><rect class="cls-4" x="723.29" y="324.14" width="20.48" height="20.48"/><rect class="cls-4" x="691.92" y="324.14" width="20.49" height="20.48"/><rect class="cls-5" x="660.56" y="324.14" width="20.48" height="20.48"/><rect class="cls-1" x="339.43" y="324.14" width="20.48" height="20.48"/></svg>