<?xml version="1.0" encoding="utf-8"?>
<!-- Generator: Adobe Illustrator 24.2.0, SVG Export Plug-In . SVG Version: 6.00 Build 0)  -->
<svg version="1.1" id="Capa_1" xmlns="http://www.w3.org/2000/svg" xmlns:xlink="http://www.w3.org/1999/xlink" x="0px" y="0px"
	 viewBox="0 0 1080 1080" style="enable-background:new 0 0 1080 1080;" xml:space="preserve">
<g>
	<g>
		<g>
			<path d="M879.03,126.53H173.05c-29.95,0-54.32,24.37-54.32,54.32v448.03c0,7.49,6.08,13.58,13.58,13.58h787.47
				c7.49,0,13.58-6.08,13.58-13.58V180.85C933.35,150.9,908.98,126.53,879.03,126.53z M906.2,615.3H145.88V180.85
				c0-14.99,12.19-27.17,27.17-27.17h705.98c14.97,0,27.17,12.18,27.17,27.17V615.3z"/>
		</g>
	</g>
	<g>
		<g>
			<path d="M919.77,615.3H132.31c-7.49,0-13.58,6.08-13.58,13.58v67.87c0,29.95,24.37,54.32,54.32,54.32h705.98
				c29.95,0,54.32-24.37,54.32-54.32v-67.87C933.35,621.39,927.27,615.3,919.77,615.3z M906.2,696.75
				c0,14.99-12.19,27.17-27.17,27.17H173.05c-14.98,0-27.17-12.18-27.17-27.17v-54.29H906.2L906.2,696.75L906.2,696.75z"/>
		</g>
	</g>
	<g>
		<g>
			<path d="M566.77,669.61h-81.46c-7.49,0-13.58,6.08-13.58,13.58c0,7.49,6.08,13.58,13.58,13.58h81.46
				c7.49,0,13.58-6.08,13.58-13.58C580.35,675.7,574.26,669.61,566.77,669.61z"/>
		</g>
	</g>
	<g>
		<g>
			<path d="M702.54,832.54h-353c-22.46,0-40.73,18.27-40.73,40.73S327.08,914,349.54,914h353c22.46,0,40.73-18.27,40.73-40.73
				S725,832.54,702.54,832.54z M702.54,886.85h-353c-7.49,0-13.58-6.1-13.58-13.58s6.08-13.58,13.58-13.58h353
				c7.49,0,13.58,6.1,13.58,13.58S710.04,886.85,702.54,886.85z"/>
		</g>
	</g>
	<g>
		<g>
			<path d="M675.39,832.54c-45.05,0-67.89-31.97-67.89-95.04c0-7.49-6.08-13.58-13.58-13.58H458.16c-7.49,0-13.58,6.08-13.58,13.58
				c0,63.06-22.84,95.04-67.89,95.04c-7.49,0-13.58,6.08-13.58,13.58s6.08,13.58,13.58,13.58h298.69c7.49,0,13.58-6.08,13.58-13.58
				S682.88,832.54,675.39,832.54z M442.83,832.54c16.71-18.52,26.56-46.09,28.54-81.46h109.36c1.97,35.37,11.81,62.94,28.54,81.46
				H442.83z"/>
		</g>
	</g>
</g>
</svg>
