<?xml version="1.0" encoding="utf-8"?>
<!-- Generator: Adobe Illustrator 24.2.0, SVG Export Plug-In . SVG Version: 6.00 Build 0)  -->
<svg version="1.1" id="Capa_1" xmlns="http://www.w3.org/2000/svg" xmlns:xlink="http://www.w3.org/1999/xlink" x="0px" y="0px"
	 viewBox="0 0 1080 1080" style="enable-background:new 0 0 1080 1080;" xml:space="preserve">
<style type="text/css">
	.st0{fill:#FFFFFF;}
	.st1{fill:#AADDF9;}
</style>
<g>
	<circle class="st0" cx="540" cy="546" r="466"/>
	<path class="st1" d="M718.28,435.78c-1.01-2.93-0.99-5.72-0.4-8.54c1.07-5.15,2.18-10.3,3.22-15.47
		c2.06-10.21,4.23-20.41,6.09-30.66c1.09-6.03,1.86-12.13,2.41-18.26c0.43-4.83,0.54-9.64,0.56-14.47
		c0.1-20.65-5.94-39.34-17.95-56.12c-7.91-11.05-17.13-20.86-27.52-29.61c-12.41-10.46-25.95-19.19-40.56-26.23
		c-15.88-7.66-32.45-13.36-49.73-16.92c-5.58-1.15-11.19-2.14-16.81-3.07c-2.7-0.45-5.45-0.6-8.17-0.87
		c-3.93-0.38-7.85-0.76-11.78-1.11c-1.31-0.12-2.63-0.17-3.95-0.17c-7.47-0.01-14.95-0.15-22.41,0.04
		c-4.92,0.13-9.84,0.7-14.75,1.12c-2.4,0.2-4.79,0.52-7.2,0.73c-6.56,0.56-13.05,1.64-19.52,2.8c-9.82,1.76-19.56,3.93-29.2,6.53
		c-9.32,2.52-18.56,5.33-27.66,8.55c-11.78,4.17-22.79,9.79-32.62,17.57c-6.09,4.81-11.34,10.36-15.06,17.25
		c-2.92,5.41-4.57,11.14-4.43,17.34c0.02,0.99,0.05,1.98,0,2.96c-0.06,1.07-0.68,1.57-1.78,1.39c-10.35-1.72-18.38,2.65-25.29,9.74
		c-4.97,5.1-7.75,11.4-9.15,18.31c-1.42,7.04-1.59,14.11-0.86,21.29c0.82,8.08,2.08,16.09,3.31,24.11
		c1.23,8.02,2.34,16.06,3.55,24.09c0.96,6.4,2.02,12.78,3,19.18c0.98,6.4,1.9,12.8,2.85,19.2c0.21,1.41,0.47,2.81,0.62,4.23
		c0.07,0.62-0.08,1.27-0.15,2.17c-0.92-0.17-1.65-0.23-2.32-0.45c-2.11-0.69-4.23-1.06-6.46-0.84c-4.57,0.44-7.97,2.89-10.82,6.26
		c-2.94,3.48-4.9,7.54-6.52,11.76c-1.86,4.83-3.08,9.85-3.92,14.94c-1.33,8.13-2.07,16.34-1.87,24.58
		c0.12,5.04,0.68,10.07,1.03,15.1c0.51,7.24,1.81,14.36,3.42,21.43c2.54,11.17,6.05,22.01,11.45,32.16
		c2.8,5.25,6.02,10.24,10.35,14.38c1.5,1.43,3.18,2.71,4.9,3.86c3.73,2.5,7.83,3.32,12.26,2.31c0.41-0.09,0.85-0.08,1.19-0.11
		c1.11,0.78,1.2,1.93,1.54,2.96c2.12,6.35,4.09,12.75,6.39,19.04c9.67,26.38,22.88,50.82,40.45,72.83c6.39,8,13.44,15.38,20.88,22.4
		c0.64,0.6,1.28,1.21,1.92,1.8c0.85,0.78,1.32,1.71,1.32,2.9c-0.02,7.69-0.01,15.38-0.03,23.07c0,0.42-0.18,0.84-0.32,1.4
		c-2.22,0.61-4.47,0.88-6.74,1.12c-3.05,0.33-6.09,0.7-9.14,1.08c-2.17,0.27-4.35,0.55-6.52,0.86c-7.38,1.04-14.76,2.05-22.12,3.15
		c-5.96,0.89-11.92,1.83-17.85,2.89c-6.47,1.16-12.91,2.52-19.37,3.76c-14.55,2.8-28.94,6.26-43.26,10.04
		c-27.3,7.2-54.09,15.98-80.25,26.63c-15.88,6.46-31.43,13.62-46.61,21.58c-9.63,5.05-19.06,10.46-28.31,16.17
		c-0.73,0.45-1.51,0.8-2.39,1.26c-0.59-0.68-1.13-1.21-1.55-1.82c-10.77-15.54-20.64-31.63-29.52-48.33
		c-13.38-25.19-24.26-51.41-32.82-78.6c-5.2-16.55-9.51-33.34-12.63-50.42c-1.61-8.84-3.08-17.72-4.43-26.61
		c-0.71-4.66-1.08-9.37-1.53-14.06c-0.65-6.88-1.23-13.77-1.84-20.65c-0.01-0.11-0.01-0.22-0.02-0.33
		c-0.36-12.62-1.05-25.24-0.64-37.87c0.21-6.58,0.69-13.15,1.08-19.72c0.25-4.27,0.49-8.55,0.87-12.81c0.4-4.59,0.9-9.17,1.46-13.74
		c0.5-4.03,1.08-8.05,1.73-12.05c1.17-7.14,2.32-14.29,3.67-21.4c2.84-15,6.58-29.79,11.01-44.39c3.38-11.13,7.14-22.15,11.37-32.99
		c5.83-14.95,12.32-29.6,19.65-43.87c13.03-25.37,28.2-49.38,45.64-71.96c8.87-11.48,18.27-22.51,28.14-33.15
		c14.97-16.14,31.03-31.11,48.12-44.96c19.41-15.73,39.97-29.79,61.66-42.2c30.44-17.41,62.44-31.2,96-41.39
		c16.82-5.11,33.9-9.18,51.2-12.31c10.91-1.98,21.88-3.55,32.91-4.72c8.74-0.93,17.49-1.57,26.26-2.08
		c12.19-0.7,24.37-0.66,36.56-0.47c6.59,0.1,13.18,0.33,19.75,0.82c8.1,0.6,16.18,1.42,24.25,2.35c6.65,0.77,13.28,1.75,19.89,2.77
		c10.42,1.6,20.74,3.72,31.01,6.11c24.65,5.75,48.64,13.54,72,23.26c19.9,8.28,39.13,17.93,57.69,28.9
		c21.13,12.49,41.18,26.53,60.05,42.22c7.18,5.96,14.11,12.23,20.97,18.56c5.65,5.21,11.15,10.6,16.51,16.1
		c11.66,11.96,22.61,24.56,32.91,37.73c13.15,16.81,25.07,34.46,35.8,52.9c9.89,17.01,18.63,34.6,26.27,52.74
		c9.44,22.4,17.06,45.4,22.87,69c3.15,12.79,5.84,25.67,7.73,38.71c1.09,7.49,2.16,14.98,3.11,22.49c0.44,3.48,0.57,7,0.86,10.49
		c0.38,4.59,0.83,9.18,1.12,13.78c0.19,2.96,0.12,5.93,0.23,8.89c0.27,7.46,0.73,14.92,0.51,22.39c-0.2,6.91-0.35,13.83-0.71,20.74
		c-0.3,5.81-0.71,11.61-1.33,17.39c-0.89,8.28-1.94,16.55-3.06,24.81c-2.44,18.07-6.3,35.86-11.01,53.47
		c-4.97,18.58-11.18,36.74-18.43,54.55c-6.09,14.97-13.04,29.53-20.65,43.78c-9.11,17.07-19.33,33.47-30.53,49.25
		c-0.25,0.35-0.56,0.66-0.98,1.14c-0.67-0.29-1.39-0.51-2.01-0.88c-7.17-4.26-14.27-8.65-21.51-12.8
		c-10.86-6.23-22.07-11.81-33.42-17.09c-10.75-5-21.65-9.67-32.7-13.96c-16.27-6.31-32.76-11.98-49.5-16.98
		c-14.83-4.43-29.75-8.49-44.84-11.88c-11.98-2.69-24-5.18-36.04-7.55c-7.74-1.52-15.54-2.77-23.34-3.97
		c-7.04-1.08-14.11-1.92-21.17-2.85c-4.89-0.65-9.78-1.28-14.66-1.93c-1.59-0.21-1.93-0.52-1.99-2.04
		c-0.06-1.54-0.03-3.08-0.03-4.61c0-5.82,0.09-11.65-0.04-17.47c-0.05-2.3,0.74-3.91,2.41-5.44c9.92-9.07,18.86-19.03,26.86-29.83
		c10.69-14.44,19.64-29.9,27.12-46.23c5.86-12.8,10.61-26.01,14.72-39.45c0.1-0.31,0.13-0.65,0.24-0.96
		c0.48-1.36,0.95-1.66,2.51-1.33c4.07,0.88,7.84,0.1,11.41-1.92c3.11-1.75,5.68-4.12,7.97-6.81c4.46-5.23,7.85-11.11,10.66-17.35
		c4.94-10.97,8.17-22.46,10.25-34.29c1.45-8.22,2.6-16.47,2.63-24.84c0.01-2.41,0.42-4.83,0.33-7.23
		c-0.32-9.11-0.92-18.19-3.06-27.1c-1.57-6.55-3.66-12.88-7.43-18.54c-1.47-2.2-3.15-4.21-5.31-5.8c-4.55-3.35-9.44-3.92-14.6-1.73
		C722.05,433.53,720.39,434.62,718.28,435.78z"/>
</g>
</svg>
