<svg id="Capa_1" data-name="Capa 1" xmlns="http://www.w3.org/2000/svg" viewBox="0 0 1080 1080"><defs><style>.cls-1{fill:#f7b83b;}.cls-2{fill:#57b23f;}.cls-3{fill:#fff;}.cls-4{fill:#a9dea9;}.cls-5{fill:#083c44;}</style></defs><circle class="cls-1" cx="529" cy="490.22" r="380.61"/><path class="cls-2" d="M738,306.67H320a49.17,49.17,0,0,0-49,49V641.83a49.17,49.17,0,0,0,49,49H738a49.17,49.17,0,0,0,49-49V355.69A49.17,49.17,0,0,0,738,306.67Z"/><rect class="cls-3" x="309.04" y="342.61" width="423.98" height="312.29"/><path class="cls-4" d="M777.85,498.76a18.21,18.21,0,1,1-18.2-18.21A18.2,18.2,0,0,1,777.85,498.76Z"/><path class="cls-4" d="M307.45,498.76A14.72,14.72,0,1,1,292.73,484,14.73,14.73,0,0,1,307.45,498.76Z"/><rect class="cls-4" x="533.37" y="416.15" width="170.24" height="127.63"/><rect class="cls-4" x="349.54" y="590.01" width="334.61" height="50.14"/><polygon class="cls-5" points="590.87 536.41 554.05 429.67 564.75 425.98 592.85 507.45 653.43 387.74 663.52 392.85 590.87 536.41"/><rect class="cls-5" x="419.52" y="374.56" width="67.84" height="13.18"/><rect class="cls-5" x="419.52" y="398.41" width="67.84" height="13.18"/><rect class="cls-5" x="419.52" y="422.25" width="67.84" height="13.18"/><rect class="cls-5" x="419.52" y="446.09" width="67.84" height="13.18"/><rect class="cls-3" x="340.21" y="374.56" width="66.19" height="86.58"/><path class="cls-5" d="M405.61,439.43c-1.68-3.43-3.54-7.16-3.72-7.29s-9.16-2.86-14.87-4.6l-4-1.21L381.5,422l-.12.12V417.9a5.61,5.61,0,0,0,1.13-1.1,5.77,5.77,0,0,0,.91-1.92c.29-1,.17-2.69.95-3.52s1.44-1.06,1.94-2.11a12.43,12.43,0,0,0,1.07-6c0-.55-.33-1.49-1.06-1-.33.24-.16.84-.47,1l0,0c.27-.89.54-1.82.63-2.25a28.76,28.76,0,0,0,.43-4.22c.38-3.4.57-6.67-1.54-9.53-2.25-3.06-5.58-4.86-7.37-4.63-.09,0-1.3.12-1.14.26a5.92,5.92,0,0,0-2.54-.8c-4.18-1-9.47,1.6-12.5,4.38-3.21,2.93-2.74,6.7-2.38,10.33a23.54,23.54,0,0,0,.48,3.86,7.37,7.37,0,0,1,.31,1.94.64.64,0,0,0-.22-.4c-.73-.54-1,.4-1.05,1a12.31,12.31,0,0,0,1.06,6c.51,1.05,1.22,1.35,1.93,2.11s.66,2.48,1,3.52a6,6,0,0,0,.91,1.92,6.56,6.56,0,0,0,1.61,1.45v3.9l-.14-.14-1.47,4.32-1.58.47-.64.19-.7.21-1.14.34c-5.71,1.74-14.62,4.44-14.86,4.6s-2.34,4.47-4.12,8.09a5.54,5.54,0,0,0-.54,2.4v18.52H406.4v-18.3A7.8,7.8,0,0,0,405.61,439.43Z"/><rect class="cls-4" x="342.86" y="474.75" width="150.22" height="18.79"/><rect class="cls-4" x="342.86" y="505.73" width="150.22" height="18.79"/><rect class="cls-4" x="344.41" y="540.39" width="150.22" height="18.79"/></svg>