<svg id="Capa_1" data-name="Capa 1" xmlns="http://www.w3.org/2000/svg" viewBox="0 0 1080 1080"><path d="M611,530H463.49C318.43,530,200.4,648,200.4,793.08V967H874.08V793.08C874.08,648,756.05,530,611,530ZM251.51,915.89V793.08c0-116.89,95.1-212,212-212H611c116.88,0,212,95.08,212,212V915.89Z"/><path d="M537.24,94.7C425.07,94.7,333.8,186,333.8,298.14s91.27,203.44,203.44,203.44,203.44-91.27,203.44-203.44S649.41,94.7,537.24,94.7Zm0,355.77c-84,0-152.33-68.34-152.33-152.33s68.34-152.33,152.33-152.33,152.33,68.34,152.33,152.33S621.23,450.47,537.24,450.47Z"/></svg>