<svg id="Capa_1" data-name="Capa 1" xmlns="http://www.w3.org/2000/svg" viewBox="0 0 1080 1080"><path d="M359.68,664.68c0-14.44-10-23.06-27.7-23.06a61.38,61.38,0,0,0-14.67,1.4v46.33a55.12,55.12,0,0,0,11.89.91C348,690.26,359.68,680.74,359.68,664.68Z"/><path d="M469.14,642.11a73.11,73.11,0,0,0-16.06,1.39V746.12c3,.71,7.92.71,12.34.71,32.12.23,53.07-17.45,53.07-54.92C518.72,659.33,499.63,642.11,469.14,642.11Z"/><path d="M672.5,105.19H323.23a92.69,92.69,0,0,0-92.56,92.55V540h-9a37.29,37.29,0,0,0-37.29,37.3V803.49a37.28,37.28,0,0,0,37.29,37.29h9v41.48a92.65,92.65,0,0,0,92.56,92.55H799.8a92.65,92.65,0,0,0,92.53-92.55v-558ZM282.18,618.12c10.93-1.85,26.29-3.24,47.94-3.24,21.87,0,37.47,4.17,47.94,12.56,10,7.9,16.76,20.95,16.76,36.3s-5.12,28.4-14.43,37.24c-12.11,11.4-30,16.52-51,16.52a90.56,90.56,0,0,1-12.11-.69V772.9H282.18Zm517.62,300H323.23a35.9,35.9,0,0,1-35.85-35.87V840.78H731.64a37.29,37.29,0,0,0,37.3-37.29V577.3a37.29,37.29,0,0,0-37.3-37.3H287.38V197.74a35.89,35.89,0,0,1,35.85-35.81l328.07-.35V282.85A64.21,64.21,0,0,0,715.49,347l118.79-.34,1.34,535.55A35.88,35.88,0,0,1,799.8,918.13ZM417.48,772.19V618.12c13-2.08,30-3.24,47.94-3.24,29.79,0,49.1,5.34,64.24,16.74C546,643.73,556.18,663,556.18,690.74c0,30-10.93,50.75-26.07,63.54-16.51,13.73-41.65,20.24-72.37,20.24A307.56,307.56,0,0,1,417.48,772.19Zm254-91.22v28.85H615.15V772.9h-35.6V616h95.88v29.08H615.15V681Z"/></svg>