<svg id="Capa_1" data-name="Capa 1" xmlns="http://www.w3.org/2000/svg" viewBox="0 0 1080 1080"><path d="M810.79,616.59c-17.29-18-38.15-27.63-60.25-27.63-21.93,0-43,9.45-61,27.46l-56.33,56.15c-4.63-2.5-9.27-4.82-13.72-7.13-6.42-3.21-12.48-6.24-17.65-9.45-52.77-33.51-100.72-77.19-146.71-133.7-22.29-28.16-37.26-51.87-48.13-75.94,14.61-13.37,28.16-27.27,41.35-40.64,5-5,10-10.16,15-15.15,37.43-37.44,37.43-85.92,0-123.36l-48.67-48.67c-5.52-5.52-11.23-11.23-16.58-16.93-10.69-11-21.92-22.46-33.51-33.16-17.29-17.11-38-26.2-59.72-26.2s-42.78,9.09-60.61,26.2l-.35.36-60.61,61.14c-22.82,22.82-35.83,50.63-38.68,82.9-4.28,52.05,11.05,100.53,22.81,132.27,28.88,77.9,72,150.09,136.37,227.46,78.08,93.23,172,166.85,279.34,218.73,41,19.43,95.73,42.42,156.87,46.34,3.74.18,7.67.36,11.23.36,41.18,0,75.76-14.8,102.86-44.21.18-.36.53-.53.71-.89,9.27-11.23,20-21.39,31.2-32.27,7.66-7.3,15.51-15,23.17-23,17.65-18.36,26.92-39.75,26.92-61.68,0-22.1-9.45-43.32-27.45-61.14ZM874.61,804.3c-.18,0-.18.18,0,0-7,7.49-14.08,14.26-21.75,21.75-11.59,11.05-23.35,22.64-34.4,35.65-18,19.26-39.22,28.35-67,28.35-2.67,0-5.53,0-8.2-.18-52.94-3.39-102.15-24.07-139.05-41.71C503.29,799.31,414.69,730,341.07,642.09c-60.79-73.27-101.43-141-128.35-213.74-16.58-44.39-22.64-79-20-111.59,1.78-20.86,9.8-38.15,24.6-52.95L278.14,203c8.74-8.2,18-12.66,27.1-12.66,11.23,0,20.32,6.77,26,12.48l.53.53c10.87,10.16,21.21,20.68,32.09,31.91,5.52,5.71,11.23,11.41,16.93,17.29l48.67,48.67c18.89,18.89,18.89,36.36,0,55.26-5.17,5.17-10.16,10.34-15.33,15.33-15,15.33-29.24,29.59-44.75,43.5-.35.35-.71.53-.89.89-15.33,15.33-12.48,30.3-9.27,40.46l.54,1.61c12.65,30.66,30.48,59.54,57.58,93.94l.17.18c49.2,60.61,101.08,107.85,158.3,144a243.68,243.68,0,0,0,21.93,11.95c6.41,3.21,12.48,6.24,17.65,9.45.71.35,1.42.89,2.13,1.24a38.7,38.7,0,0,0,17.65,4.46c14.8,0,24.07-9.27,27.1-12.3l61-61c6.06-6.07,15.69-13.37,26.92-13.37,11.05,0,20.14,7,25.67,13l.36.36,98.22,98.22C892.79,766.69,892.79,785.41,874.61,804.3Z"/></svg>