<svg id="Capa_1" data-name="Capa 1" xmlns="http://www.w3.org/2000/svg" viewBox="0 0 1080 1080"><path d="M884.44,698.16,654.39,545.74c-6.56-4.35-15.31-6.74-24.65-6.74s-18.09,2.39-24.65,6.74L584.2,559.58c-6.56,4.35-10.18,10.15-10.18,16.33s3.62,12.19,10.18,16.53l134.21,89.11H292c-19.22,0-34.41,10-34.41,22.72v19.57c0,12.74,15.19,23.71,34.41,23.71H719.93L584.2,837.16c-6.56,4.36-10.17,10-10.17,16.19s3.61,11.9,10.17,16.25l20.89,13.8c6.57,4.35,15.32,6.72,24.66,6.72s18.08-2.4,24.65-6.75L884.45,731c6.58-4.37,10.2-10.19,10.18-16.39S891,702.52,884.44,698.16Z"/><path d="M183.37,363.44c0,6.2,3.6,12,10.18,16.39L423.6,532.25c6.57,4.35,15.32,6.75,24.65,6.75s18.09-2.37,24.66-6.72l20.89-13.8c6.56-4.35,10.17-10.07,10.17-16.25S500.36,490.4,493.8,486L358.07,396.43H786c19.22,0,34.41-11,34.41-23.72V353.15c0-12.74-15.19-22.72-34.41-22.72H359.59L493.8,241.32C500.36,237,504,231,504,224.79s-3.62-12-10.18-16.33l-20.89-13.84c-6.56-4.35-15.31-6.74-24.65-6.74s-18.09,2.39-24.65,6.74L193.56,347C187,351.4,183.35,357.23,183.37,363.44Z"/></svg>