<svg id="Capa_1" data-name="Capa 1" xmlns="http://www.w3.org/2000/svg" viewBox="0 0 1080 1080"><path d="M786.65,291.21a346.86,346.86,0,1,0,101.6,245.27A344.57,344.57,0,0,0,786.65,291.21ZM368.4,789a175.64,175.64,0,0,1,346,0,305.58,305.58,0,0,1-346,0ZM431.08,493a110.3,110.3,0,1,1,110.3,110.29A110.42,110.42,0,0,1,431.08,493ZM749.56,760.84A216.61,216.61,0,0,0,623.62,619.45,150.92,150.92,0,0,0,692.32,493c0-83.24-67.71-150.95-150.94-150.95S390.43,409.71,390.43,493a151,151,0,0,0,68.7,126.5A216.62,216.62,0,0,0,333.19,760.83a305.44,305.44,0,0,1-98-224.35c0-168.85,137.37-306.22,306.23-306.22S847.6,367.63,847.6,536.48A305.45,305.45,0,0,1,749.56,760.84Z"/></svg>