<svg id="Capa_1" data-name="Capa 1" xmlns="http://www.w3.org/2000/svg" viewBox="0 0 1080 1080"><path d="M977.18,218.77h-378V131.53a29,29,0,0,0-10.52-22.39A28.58,28.58,0,0,0,564.73,103L99.48,190.21a29,29,0,0,0-23.73,28.56V858.5a29,29,0,0,0,23.73,28.55l465.25,87.24a27.33,27.33,0,0,0,5.35.52,29.07,29.07,0,0,0,29.08-29.08V858.5h378a29.09,29.09,0,0,0,29.08-29.08V247.85A29.09,29.09,0,0,0,977.18,218.77ZM482.67,425.52,453.6,687.28a29.1,29.1,0,0,1-25.3,25.59,24.31,24.31,0,0,1-3.61.23,29.16,29.16,0,0,1-27.22-18.84l-60-160-60,160a29.08,29.08,0,0,1-56-6.16L192.35,484.55a29.08,29.08,0,0,1,57.58-8.2l13,90.95,47.28-126.14c8.49-22.68,45.94-22.68,54.49,0l44.55,118.76,15.65-140.86a29.08,29.08,0,0,1,57.8,6.46ZM948.11,800.34h-349V742.18H860.87a29.08,29.08,0,1,0,0-58.15H599.16V625.87H860.87a29.08,29.08,0,1,0,0-58.16H599.16V509.55H860.87a29.08,29.08,0,1,0,0-58.15H599.16V393.24H860.87a29.08,29.08,0,1,0,0-58.16H599.16V276.93h349Z"/></svg>