<svg id="Capa_1" data-name="Capa 1" xmlns="http://www.w3.org/2000/svg" viewBox="0 0 1080 1080"><defs><style>.cls-1{fill:#f7b83b;}.cls-2{fill:#083c44;}.cls-3{fill:#57b23f;}.cls-4{fill:#fff;}.cls-5{fill:#a9dea9;}</style></defs><circle class="cls-1" cx="539.15" cy="489.76" r="380.61"/><polygon class="cls-2" points="588.31 710.25 494.29 710.25 502.02 596.91 580.58 596.91 588.31 710.25"/><path class="cls-2" d="M600.63,692.1a6.14,6.14,0,0,0-5.1-2.72H487.07a6.14,6.14,0,0,0-5.1,2.72l-14.21,21.19a6.15,6.15,0,0,0,5.11,9.57H609.73a6.15,6.15,0,0,0,5.11-9.57Z"/><rect class="cls-2" x="284.63" y="282.93" width="513.33" height="344.11" rx="26.46"/><rect class="cls-3" x="308.27" y="305.73" width="466.06" height="294.95"/><path class="cls-2" d="M384.53,453.2s146.64,185,313.54,0C531.17,268.21,384.53,453.2,384.53,453.2Z"/><path class="cls-4" d="M406.48,453.2s126.11,159.1,269.64,0C532.59,294.11,406.48,453.2,406.48,453.2Z"/><circle class="cls-5" cx="541.3" cy="453.2" r="69.69" transform="translate(-22.36 878.27) rotate(-76.96)"/><path class="cls-2" d="M585.2,453.2a43.9,43.9,0,1,1-43.9-43.89A43.9,43.9,0,0,1,585.2,453.2Z"/><path class="cls-4" d="M593.24,425.55a17.86,17.86,0,1,1-17.85-17.85A17.86,17.86,0,0,1,593.24,425.55Z"/><path class="cls-2" d="M399.94,397l8.34-4.9-17-25.1a5.09,5.09,0,0,0-6.73-1.42l-.09.05a4.38,4.38,0,0,0-1.52,6.27Z"/><path class="cls-2" d="M431.63,380.44l9-3.73-12.9-27.13a5,5,0,0,0-6.44-2.32l-.09,0a4.44,4.44,0,0,0-2.48,6Z"/><path class="cls-2" d="M465.54,368.36l9.49-2.47-8.56-28.59a4.92,4.92,0,0,0-6-3.15l-.09,0a4.53,4.53,0,0,0-3.39,5.61Z"/><path class="cls-2" d="M501,361l9.78-1.17-4.08-29.44a4.82,4.82,0,0,0-5.46-3.93h-.1a4.62,4.62,0,0,0-4.21,5.09Z"/><path class="cls-2" d="M547.52,328.86a4.71,4.71,0,0,0-4.8-4.62h-.1a4.74,4.74,0,0,0-5,4.48l-.48,29.68,9.85.14Z"/><path class="cls-2" d="M588.19,332.83a4.61,4.61,0,0,0-4.05-5.21h-.09a4.84,4.84,0,0,0-5.59,3.77l-5,29.31,9.73,1.45Z"/><path class="cls-2" d="M627.83,342.21a4.5,4.5,0,0,0-3.2-5.7l-.1,0a5,5,0,0,0-6.11,3l-9.5,28.33,9.41,2.74Z"/><path class="cls-2" d="M665.63,356.83a4.43,4.43,0,0,0-2.28-6.07l-.09,0a5,5,0,0,0-6.51,2.12L643,379.59l8.88,4Z"/><path class="cls-2" d="M700.75,376.41a4.37,4.37,0,0,0-1.31-6.32l-.09,0a5.1,5.1,0,0,0-6.77,1.22l-17.8,24.61L683,401Z"/><path class="cls-2" d="M400.4,512.44l8.33,4.91-17,25.1a5.09,5.09,0,0,1-6.72,1.42l-.09,0a4.37,4.37,0,0,1-1.52-6.28Z"/><path class="cls-2" d="M432.09,529l9,3.72-12.91,27.14a5,5,0,0,1-6.43,2.31l-.09,0a4.42,4.42,0,0,1-2.48-6Z"/><path class="cls-2" d="M466,541.05l9.49,2.48-8.56,28.58a4.93,4.93,0,0,1-6,3.16l-.1,0a4.51,4.51,0,0,1-3.38-5.6Z"/><path class="cls-2" d="M501.43,548.44l9.78,1.18-4.08,29.44a4.82,4.82,0,0,1-5.46,3.93l-.1,0a4.61,4.61,0,0,1-4.21-5.09Z"/><path class="cls-2" d="M548,580.55a4.71,4.71,0,0,1-4.8,4.62h-.1a4.73,4.73,0,0,1-5-4.48L537.65,551l9.85-.13Z"/><path class="cls-2" d="M588.65,576.58a4.6,4.6,0,0,1-4,5.21l-.1,0a4.83,4.83,0,0,1-5.58-3.77l-5-29.31,9.73-1.45Z"/><path class="cls-2" d="M628.29,567.21a4.5,4.5,0,0,1-3.2,5.7l-.1,0a5,5,0,0,1-6.11-3l-9.5-28.33,9.41-2.74Z"/><path class="cls-2" d="M666.08,552.59a4.41,4.41,0,0,1-2.28,6.07l-.09,0a5,5,0,0,1-6.51-2.13l-13.79-26.75,8.88-4Z"/><path class="cls-2" d="M701.21,533a4.35,4.35,0,0,1-1.32,6.31l-.08.06a5.11,5.11,0,0,1-6.77-1.23l-17.8-24.6,8.17-5.14Z"/></svg>