<svg id="Capa_1" data-name="Capa 1" xmlns="http://www.w3.org/2000/svg" viewBox="0 0 1080 1080"><path d="M792.33,288H533.89L516.2,234.88a22.92,22.92,0,0,0-21.75-15.67H288.23A68.74,68.74,0,0,0,219.49,288v504.1a68.74,68.74,0,0,0,68.74,68.74h504.1a68.75,68.75,0,0,0,68.74-68.74V356.69A68.75,68.75,0,0,0,792.33,288Zm22.91,504.1A22.91,22.91,0,0,1,792.33,815H288.23a22.9,22.9,0,0,1-22.91-22.91V448.35H815.24Zm0-389.53H265.32V288A22.9,22.9,0,0,1,288.23,265h189.7l17.69,53.06a22.91,22.91,0,0,0,21.74,15.68h275a22.91,22.91,0,0,1,22.91,22.91Z"/></svg>