<?xml version="1.0" encoding="utf-8"?>
<!-- Generator: Adobe Illustrator 21.1.0, SVG Export Plug-In . SVG Version: 6.00 Build 0)  -->
<svg version="1.1" id="Capa_1" xmlns="http://www.w3.org/2000/svg" xmlns:xlink="http://www.w3.org/1999/xlink" x="0px" y="0px"
	 viewBox="0 0 512 512" style="enable-background:new 0 0 512 512;" xml:space="preserve">
<style type="text/css">
	.st0{fill:#083C44;}
	.st1{fill:#DE6504;}
	.st2{fill:#FFFFFF;}
	.st3{fill:#0CAB69;}
	.st4{fill:#16A2B8;}
</style>
<g>
	<path class="st0" d="M256,497.3C122.9,497.3,14.7,389.1,14.7,256S122.9,14.7,256,14.7S497.3,122.9,497.3,256S389.1,497.3,256,497.3
		z M256,44.8C139.6,44.8,44.8,139.6,44.8,256S139.6,467.2,256,467.2S467.2,372.4,467.2,256S372.4,44.8,256,44.8z"/>
	<path class="st0" d="M361.6,271.1H150.4c-8.3,0-15.1-6.8-15.1-15.1s6.8-15.1,15.1-15.1h211.2c8.3,0,15.1,6.8,15.1,15.1
		S369.9,271.1,361.6,271.1z"/>
	<path class="st0" d="M256,376.7c-8.3,0-15.1-6.8-15.1-15.1V150.4c0-8.3,6.8-15.1,15.1-15.1s15.1,6.8,15.1,15.1v211.2
		C271.1,369.9,264.3,376.7,256,376.7z"/>
</g>
</svg>
