<svg id="Capa_1" data-name="Capa 1" xmlns="http://www.w3.org/2000/svg" viewBox="0 0 653.33 648.33"><defs><style>.cls-1{fill:#0d3c44;}</style></defs><title>Iconos-Archivadas</title><path class="cls-1" d="M566,67.88H537.31V20H489.43V67.88h-316V20H125.55V67.88H96.82A71.9,71.9,0,0,0,25,139.7V561a71.9,71.9,0,0,0,71.82,71.82H566A71.9,71.9,0,0,0,637.86,561V139.7A71.9,71.9,0,0,0,566,67.88ZM590,561A24,24,0,0,1,566,585H96.82A24,24,0,0,1,72.88,561V245H590Zm0-363.89H72.88V139.7a24,24,0,0,1,23.94-23.94h28.73v47.88h47.88V115.76h316v47.88h47.88V115.76H566A24,24,0,0,1,590,139.7Z"/><rect class="cls-1" x="115.97" y="295.31" width="47.88" height="47.88"/><rect class="cls-1" x="211.73" y="295.31" width="47.88" height="47.88"/><rect class="cls-1" x="307.49" y="295.31" width="47.88" height="47.88"/><rect class="cls-1" x="403.25" y="295.31" width="47.88" height="47.88"/><rect class="cls-1" x="499.01" y="295.31" width="47.88" height="47.88"/><rect class="cls-1" x="115.97" y="391.07" width="47.88" height="47.88"/><rect class="cls-1" x="211.73" y="391.07" width="47.88" height="47.88"/><rect class="cls-1" x="307.49" y="391.07" width="47.88" height="47.88"/><rect class="cls-1" x="403.25" y="391.07" width="47.88" height="47.88"/><rect class="cls-1" x="115.97" y="486.83" width="47.88" height="47.88"/><rect class="cls-1" x="211.73" y="486.83" width="47.88" height="47.88"/><rect class="cls-1" x="307.49" y="486.83" width="47.88" height="47.88"/><rect class="cls-1" x="403.25" y="486.83" width="47.88" height="47.88"/><rect class="cls-1" x="499.01" y="391.07" width="47.88" height="47.88"/></svg>