<?xml version="1.0" encoding="utf-8"?>
<!-- Generator: Adobe Illustrator 21.1.0, SVG Export Plug-In . SVG Version: 6.00 Build 0)  -->
<svg version="1.1" xmlns="http://www.w3.org/2000/svg" xmlns:xlink="http://www.w3.org/1999/xlink" x="0px" y="0px"
	 viewBox="0 0 760 652" style="enable-background:new 0 0 760 652;" xml:space="preserve">
<style type="text/css">
	.st0{fill:#083C44;}
	.st1{fill:#FFFFFF;}
	.st2{fill:#F2F2F2;}
	.st3{fill:#7A7D7F;}
	.st4{fill:#1C2330;}
	.st5{fill:none;stroke:#7A7D7F;stroke-width:3;stroke-miterlimit:10;}
	.st6{opacity:0.1;fill:#DE6504;}
	.st7{fill:none;stroke:#083C44;stroke-width:3;stroke-miterlimit:10;}
	.st8{fill:#16A2B8;}
	.st9{opacity:0.1;fill:#16A2B8;}
	.st10{fill:#4D4D4D;}
	.st11{fill:#F15A24;}
	.st12{fill:#39B54A;}
	.st13{fill:#FF931E;}
	.st14{fill:#0071BC;}
	.st15{fill:none;stroke:#39B54A;stroke-width:2;stroke-miterlimit:10;}
	.st16{fill:#39B54A;stroke:#39B54A;stroke-width:2;stroke-miterlimit:10;}
	.st17{fill:#39B54A;stroke:#39B54A;stroke-width:0.25;stroke-miterlimit:10;}
	.st18{opacity:0.1;}
	.st19{fill:#DE6504;}
	.st20{fill:#808080;}
	.st21{fill:#0CAB69;}
	.st22{opacity:0.1;fill:#0CAB69;}
	.st23{clip-path:url(#SVGID_32_);fill:#083C44;}
	.st24{fill:none;stroke:#083C44;stroke-miterlimit:10;}
	.st25{fill:#AAB2BD;}
	.st26{fill:#CCD1D9;}
	.st27{fill:#F9E2AA;}
	.st28{fill:#A9DEA9;}
	.st29{fill:#FFEAA7;}
	.st30{fill:#F0D0B4;}
	.st31{fill:#011F24;}
	.st32{fill:#E6E9ED;}
	.st33{fill:#C6C5CA;}
	.st34{fill:#00D7DF;}
	.st35{fill:#B4DD7F;}
	.st36{clip-path:url(#SVGID_74_);fill:#083C44;}
	.st37{opacity:0.35;fill:#FFFFFF;}
	.st38{fill:#083C44;stroke:#083C44;stroke-miterlimit:10;}
	.st39{fill:#CCCCCC;}
	.st40{fill:#666666;}
	.st41{clip-path:url(#SVGID_108_);fill:#083C44;}
	.st42{fill:#E6E6E6;}
	.st43{fill:#FEA621;}
	.st44{clip-path:url(#SVGID_110_);}
	.st45{fill:#FCB18E;}
	.st46{fill:#E5E5E5;}
	.st47{fill:#DB9A7C;}
	.st48{fill:#26120B;}
	.st49{fill:#1A1A1A;}
	.st50{fill:#C0000B;}
	.st51{fill:#C2000B;}
	.st52{fill:#121212;}
	.st53{fill:#E0E0E0;}
	.st54{display:none;fill:none;stroke:#083C44;stroke-width:3;stroke-miterlimit:10;}
	.st55{fill:none;stroke:#CCCCCC;stroke-width:3;stroke-miterlimit:10;}
	.st56{fill:#642714;}
	.st57{clip-path:url(#SVGID_118_);}
	.st58{fill:#031114;}
	.st59{fill:#000C0F;}
	.st60{fill:none;stroke:#083C44;stroke-width:6;stroke-miterlimit:10;}
	.st61{fill:#F72C2F;}
	.st62{clip-path:url(#SVGID_120_);}
	.st63{fill:#985112;}
	.st64{fill:#3CB1A8;}
	.st65{fill:#4F7119;}
	.st66{clip-path:url(#SVGID_124_);}
	.st67{fill:#2C0609;}
	.st68{fill:#295B6A;}
	.st69{fill:#580B12;}
	.st70{fill:#4AA5C1;}
	.st71{clip-path:url(#SVGID_126_);}
	.st72{fill:#301C0A;}
	.st73{fill:#081B38;}
	.st74{fill:#603813;}
	.st75{fill:#C7C7C7;}
	.st76{clip-path:url(#SVGID_132_);}
	.st77{fill:#BC842C;}
	.st78{fill:#FBB03B;}
	.st79{fill:none;stroke:#083C44;stroke-width:5;stroke-miterlimit:10;}
	.st80{clip-path:url(#SVGID_152_);}
	.st81{clip-path:url(#SVGID_152_);fill:#FEA621;}
	.st82{clip-path:url(#SVGID_160_);fill:#BC842C;}
	.st83{clip-path:url(#SVGID_160_);fill:#FCB18E;}
	.st84{clip-path:url(#SVGID_160_);fill:#E5E5E5;}
	.st85{clip-path:url(#SVGID_160_);}
	.st86{clip-path:url(#SVGID_160_);fill:#295B6A;}
	.st87{clip-path:url(#SVGID_160_);fill:#FBB03B;}
	.st88{clip-path:url(#SVGID_160_);fill:#26120B;}
	.st89{clip-path:url(#SVGID_162_);}
	.st90{clip-path:url(#SVGID_162_);fill:#E0E0E0;}
	.st91{clip-path:url(#SVGID_162_);fill:#C7C7C7;}
	.st92{clip-path:url(#SVGID_170_);fill:#2C0609;}
	.st93{clip-path:url(#SVGID_170_);fill:#FCB18E;}
	.st94{clip-path:url(#SVGID_170_);fill:#E5E5E5;}
	.st95{clip-path:url(#SVGID_170_);}
	.st96{clip-path:url(#SVGID_170_);fill:#295B6A;}
	.st97{clip-path:url(#SVGID_170_);fill:#580B12;}
	.st98{clip-path:url(#SVGID_170_);fill:#26120B;}
	.st99{clip-path:url(#SVGID_176_);fill:#FCB18E;}
	.st100{clip-path:url(#SVGID_176_);fill:#E5E5E5;}
	.st101{clip-path:url(#SVGID_176_);fill:#DB9A7C;}
	.st102{clip-path:url(#SVGID_176_);fill:#FFFFFF;}
	.st103{clip-path:url(#SVGID_176_);fill:#26120B;}
	.st104{clip-path:url(#SVGID_176_);fill:#1A1A1A;}
	.st105{clip-path:url(#SVGID_176_);fill:#C0000B;}
	.st106{clip-path:url(#SVGID_176_);fill:#C2000B;}
	.st107{clip-path:url(#SVGID_176_);fill:#CCCCCC;}
	.st108{clip-path:url(#SVGID_176_);fill:#121212;}
	.st109{clip-path:url(#SVGID_176_);fill:#E0E0E0;}
</style>
<g id="Modelos">
</g>
<g id="Menu-Lateral">
</g>
<g id="Panel-Principal">
</g>
<g id="Capa_4">
</g>
<g id="Capa_5">
</g>
<g id="Capa_6">
	<g>
		<g>
			<g>
				<path class="st3" d="M741.6,544.1L437.1,39c-12-19.9-33.9-32.3-57.1-32.3S334.9,19.2,322.9,39l-304.5,505
					c-12.4,20.6-12.8,46.3-1,67.2c11.8,20.9,34.1,33.9,58.1,33.9h609c24,0,46.3-13,58.1-33.9C754.4,590.4,754,564.6,741.6,544.1z
					 M700.5,587.5c-3.3,5.8-9.4,9.3-16,9.3h-609c-6.6,0-12.7-3.6-16-9.3c-3.3-5.8-3.1-12.8,0.3-18.5L364.3,64
					c3.3-5.5,9.3-8.9,15.7-8.9c6.4,0,12.4,3.4,15.7,8.9l304.5,505C703.7,574.7,703.8,581.8,700.5,587.5z"/>
			</g>
		</g>
		<g>
			<g>
				<path class="st3" d="M380.2,205.7c-18.4,0-32.7,9.9-32.7,27.4c0,53.4,6.3,130,6.3,183.4c0,13.9,12.1,19.7,26.5,19.7
					c10.8,0,26-5.8,26-19.7c0-53.4,6.3-130,6.3-183.4C412.5,215.5,397.7,205.7,380.2,205.7z"/>
			</g>
		</g>
		<g>
			<g>
				<path class="st3" d="M380.7,467.1c-19.7,0-34.5,15.7-34.5,34.5c0,18.4,14.8,34.5,34.5,34.5c18.4,0,34.1-16.1,34.1-34.5
					C414.8,482.8,399.1,467.1,380.7,467.1z"/>
			</g>
		</g>
	</g>
</g>
</svg>
