<?xml version="1.0" encoding="utf-8"?>
<!-- Generator: Adobe Illustrator 21.1.0, SVG Export Plug-In . SVG Version: 6.00 Build 0)  -->
<svg version="1.1" id="Capa_1" xmlns="http://www.w3.org/2000/svg" xmlns:xlink="http://www.w3.org/1999/xlink" x="0px" y="0px"
	 viewBox="0 0 512 512" style="enable-background:new 0 0 512 512;" xml:space="preserve">
<style type="text/css">
	.st0{fill:#083C44;}
	.st1{fill:#E6E9ED;}
	.st2{fill:#FFEAA7;}
	.st3{fill:#B4DD7F;}
	.st4{fill:#F9E2AA;}
	.st5{fill:#011F24;}
</style>
<g>
	<g>
		<circle class="st0" cx="251.5" cy="258" r="245.5"/>
	</g>
	<g>
		<path class="st1" d="M118,173.4v149c0,4.8,4,8.8,8.9,8.8h249.3c4.9,0,8.9-3.9,8.9-8.8v-149H118z"/>
		<path class="st2" d="M365.7,331.3c1,4.2,1.6,8.6,1.6,13.2c0,31.5-25.9,57-57.9,57s-57.9-25.5-57.9-57c0-4.5,0.5-8.9,1.6-13.2
			c6-25.1,28.9-43.8,56.3-43.8C336.8,287.4,359.7,306.1,365.7,331.3z"/>
		<path class="st3" d="M340.6,344.4l-53.4,26.3v-52.6L340.6,344.4z"/>
		<path class="st4" d="M260.5,199.7v70.1c0,4.8-4,8.8-8.9,8.8H144.7c-4.9,0-8.9-3.9-8.9-8.8v-70.1c0-4.8,4-8.8,8.9-8.8h106.9
			C256.4,191,260.5,194.9,260.5,199.7z"/>
		<path class="st3" d="M233.7,208.5l-17.8,17.5h-26.7l-35.6,30.7v4.4h35.6h26.7h26.7v-52.6H233.7z"/>
		<path class="st4" d="M118,173.4v-26.3c0-4.8,4-8.8,8.9-8.8h249.3c4.9,0,8.9,3.9,8.9,8.8v26.3H118z"/>
		<path class="st5" d="M251.5,186.6H144.7c-7.4,0-13.4,5.9-13.4,13.2v70.1c0,7.3,6,13.2,13.4,13.2h106.9c7.4,0,13.4-5.9,13.4-13.2
			v-70.1C264.9,192.5,258.9,186.6,251.5,186.6z M256,269.9c0,2.4-2,4.4-4.5,4.4H144.7c-2.5,0-4.5-2-4.5-4.4v-70.1
			c0-2.4,2-4.4,4.5-4.4h106.9c2.5,0,4.5,2,4.5,4.4V269.9z"/>
		<path class="st5" d="M214.1,221.7h-26.5l-38.4,33.1v10.8h97.9v-61.4h-15.2L214.1,221.7z M193.7,230.4h17.8v26.3h-17.8V230.4z
			 M184.8,235.7v21h-24.4L184.8,235.7z M238.2,212.9v43.8h-17.8v-28.9l15.2-15H238.2z"/>
		<path class="st5" d="M376.2,134H126.9c-7.4,0-13.4,5.9-13.4,13.2v175.3c0,7.3,6,13.2,13.4,13.2h120.9c-0.4,2.9-0.7,5.8-0.7,8.8
			c0,33.8,28,61.4,62.3,61.4s62.3-27.5,62.3-61.4c0-3-0.3-5.9-0.7-8.8h5.2c7.4,0,13.4-5.9,13.4-13.2V147.1
			C389.6,139.9,383.6,134,376.2,134z M126.9,142.8h249.3c2.5,0,4.5,2,4.5,4.4v21.9H122.4v-21.9C122.4,144.7,124.4,142.8,126.9,142.8
			z M309.4,397c-29.5,0-53.4-23.6-53.4-52.6s24-52.6,53.4-52.6c29.5,0,53.4,23.6,53.4,52.6S338.9,397,309.4,397z M376.2,326.9h-7.1
			c-7.7-25.3-31.5-43.8-59.7-43.8c-28.2,0-52,18.5-59.7,43.8H126.9c-2.5,0-4.5-2-4.5-4.4V177.8h258.2v144.7
			C380.7,324.9,378.7,326.9,376.2,326.9z"/>
		<path class="st5" d="M167,151.5h8.9v8.8H167V151.5z"/>
		<path class="st5" d="M131.3,151.5h8.9v8.8h-8.9V151.5z"/>
		<path class="st5" d="M149.1,151.5h8.9v8.8h-8.9V151.5z"/>
		<path class="st5" d="M282.7,377.8l67.8-33.4L282.7,311V377.8z M291.6,325.2l39,19.2l-39,19.2V325.2z"/>
		<path class="st5" d="M273.8,186.6h8.9v8.8h-8.9V186.6z"/>
		<path class="st5" d="M291.6,186.6h80.1v8.8h-80.1V186.6z"/>
		<path class="st5" d="M273.8,204.1h97.9v8.8h-97.9V204.1z"/>
		<path class="st5" d="M309.4,221.7h62.3v8.8h-62.3V221.7z"/>
		<path class="st5" d="M273.8,221.7h26.7v8.8h-26.7V221.7z"/>
		<path class="st5" d="M273.8,239.2h97.9v8.8h-97.9V239.2z"/>
		<path class="st5" d="M273.8,256.7h62.3v8.8h-62.3V256.7z"/>
		<path class="st5" d="M362.9,256.7h8.9v8.8h-8.9V256.7z"/>
		<path class="st5" d="M345,256.7h8.9v8.8H345V256.7z"/>
		<path class="st5" d="M131.3,291.8h8.9v8.8h-8.9V291.8z"/>
		<path class="st5" d="M149.1,291.8h80.1v8.8h-80.1V291.8z"/>
		<path class="st5" d="M131.3,309.3h8.9v8.8h-8.9V309.3z"/>
		<path class="st5" d="M149.1,309.3h80.1v8.8h-80.1V309.3z"/>
	</g>
</g>
</svg>
