<?xml version="1.0" encoding="utf-8"?>
<!-- Generator: Adobe Illustrator 21.1.0, SVG Export Plug-In . SVG Version: 6.00 Build 0)  -->
<svg version="1.1" id="Capa_1" xmlns="http://www.w3.org/2000/svg" xmlns:xlink="http://www.w3.org/1999/xlink" x="0px" y="0px"
	 viewBox="0 0 512 512" style="enable-background:new 0 0 512 512;" xml:space="preserve">
<style type="text/css">
	.st0{fill:#083C44;}
	.st1{fill:#C6C5CA;}
	.st2{fill:#00D7DF;}
	.st3{fill:#A9DEA9;}
	.st4{fill:#FFEAA7;}
	.st5{fill:#CCD1D9;}
	.st6{fill:#011F24;}
</style>
<g>
	<g>
		<circle class="st0" cx="256" cy="256" r="243.5"/>
	</g>
	<g>
		<path class="st1" d="M390.8,307.1v18.6c0,5.1-4.2,9.3-9.3,9.3h-251c-5.1,0-9.3-4.2-9.3-9.3v-18.6H390.8z"/>
		<path class="st2" d="M348.9,288.5l4.6-27.9h-13.9V158.4H237.4c-7.5,0-14.5,3.6-18.9,9.8c-2.3-17.8-18.6-30.4-36.4-28.1
			s-30.4,18.6-28.1,36.4c0.7,5.2,2.6,10.2,5.6,14.5H154c-7.1,0-13.7,5.8-14.2,12.9c-0.6,8.2,5.9,15,13.9,15h18.6v41.8h-13.9
			l4.6,27.9H348.9z"/>
		<path class="st3" d="M390.8,130.5v176.6H121.2V130.5c0-5.1,4.2-9.3,9.3-9.3h251C386.6,121.2,390.8,125.4,390.8,130.5z"/>
		<path class="st4" d="M172.3,158.4h167.3v111.5H172.3V158.4z"/>
		<path class="st5" d="M311.5,390.8H200l13.9-18.6h83.7L311.5,390.8z"/>
		<path class="st5" d="M283.7,335l4.6,37.2h-65.1l4.6-37.2H283.7z"/>
		<path class="st5" d="M264.8,218.8h-111c-7.1,0-13.7-5.8-14.2-12.9c-0.6-8.2,5.9-15,13.9-15h5.9c-10.3-14.7-6.7-35,8-45.3
			c14.7-10.3,35-6.7,45.3,8c3,4.3,4.9,9.3,5.6,14.5c7.4-10.4,21.9-12.9,32.4-5.4c8.9,6.4,12.2,18.1,7.8,28.2h6.6
			c8,0,14.5,6.8,13.9,15C278.5,213,271.9,218.8,264.8,218.8z"/>
		<path class="st5" d="M353.6,260.6l-4.6,27.9H163.1l-4.6-27.9h13.9h69.7v9.3h27.9v-9.3h69.7H353.6z"/>
		<path class="st6" d="M381.5,116.6h-251c-7.7,0-13.9,6.3-13.9,13.9v195.2c0,7.7,6.3,13.9,13.9,13.9h92.3l-3.5,27.9h-5.4
			c-1.5,0-2.8,0.7-3.7,1.9l-13.9,18.5c-1,1.4-1.3,3.2-0.6,4.8c0.8,1.8,2.5,2.8,4.3,2.8h111.4c1.7,0,3.4-0.9,4.2-2.4
			c0.9-1.7,0.7-3.7-0.3-5.1l-13.9-18.6c-0.9-1.2-2.3-1.8-3.7-1.9h-5.2l-3.5-27.9h92.6c7.7,0,13.9-6.3,13.9-13.9V130.5
			C395.4,122.8,389.2,116.6,381.5,116.6z M295.3,376.8l7,9.3h-92.9l7-9.3H295.3z M228.5,367.5l3.5-27.9h47.6l3.5,27.9H228.5z
			 M381.5,330.4h-251c-2.6,0-4.6-2.1-4.6-4.6v-13.9h260.3v13.9C386.1,328.3,384,330.4,381.5,330.4z M386.1,302.5H125.9v-172
			c0-2.6,2.1-4.6,4.6-4.6h251c2.6,0,4.6,2.1,4.6,4.6V302.5z"/>
		<path class="st6" d="M357.1,257.6c-0.9-1-2.2-1.6-3.5-1.6h-9.3v-97.6c0-2.6-2.1-4.6-4.6-4.6H237.4c-5.9,0-11.6,1.9-16.4,5.3
			c-7.3-19.2-28.7-28.9-47.9-21.6c-14.5,5.5-24,19.4-24,34.8c0,4.8,0.9,9.6,2.7,14c-10.2,1-17.7,10.1-16.6,20.4
			c1,9.5,9,16.8,18.5,16.7h13.9V256h-9.3c-2.6,0-4.7,2.1-4.7,4.6c0,0.3,0,0.5,0.1,0.8l4.6,27.9c0.4,2.3,2.3,3.9,4.6,3.9h185.9
			c2.3,0,4.2-1.6,4.6-3.9l4.6-27.9C358.4,260,358,258.7,357.1,257.6L357.1,257.6z M335,163.1V256h-65.1c-2.6,0-4.6,2.1-4.6,4.6l0,0
			v4.6h-18.6v-4.6c0-2.6-2.1-4.6-4.6-4.6H177v-32.5h9.3v9.3c0,7.7,6.3,13.9,13.9,13.9h88.3v-9.3h-88.3c-2.6,0-4.6-2.1-4.6-4.6v-9.3
			h69.3c9.8,0,18.2-7.4,18.9-17.2c0.8-10.9-7.8-20-18.5-20h-0.4c0.2-1.5,0.4-3.1,0.4-4.6c0-6.9-2.6-13.5-7.2-18.6H335z M153.5,214.2
			c-5.5,0-9.9-4.7-9.2-10.4c0.5-4.7,4.7-8.2,9.5-8.2h5.6c1.7,0,3.3-1,4.1-2.5c0.8-1.5,0.7-3.4-0.3-4.8c-3.3-4.7-5-10.2-5-15.9
			c0-15.4,12.5-27.9,27.9-27.9c14,0,25.8,10.4,27.6,24.3c0.2,1.9,1.6,3.5,3.5,3.9c1.9,0.5,3.8-0.3,4.9-1.8c6-8.3,17.6-10.2,25.9-4.2
			c7.1,5.1,9.7,14.5,6.2,22.5c-1.1,2.3,0,5,2.3,6.1c0.6,0.3,1.3,0.4,2,0.4h6.4c4.8,0,9,3.5,9.5,8.2c0.6,5.6-3.8,10.4-9.2,10.4
			L153.5,214.2z M345,283.9H167l-3.1-18.6h73.5v4.6c0,2.6,2.1,4.6,4.6,4.6h27.9c2.6,0,4.6-2.1,4.6-4.6v-4.6h73.5L345,283.9z"/>
		<path class="st6" d="M297.8,237.4h9.3v9.3h-9.3V237.4z"/>
		<path class="st6" d="M316.4,186.3v32.5h9.3v-32.5c0-7.7-6.2-13.9-13.9-13.9h-27.9v9.3h27.9C314.3,181.6,316.4,183.7,316.4,186.3z"
			/>
		<path class="st6" d="M316.4,228.1h9.3v9.3h-9.3V228.1z"/>
	</g>
</g>
</svg>
